<svg id="Layer_1" data-name="Layer 1" xmlns="http://www.w3.org/2000/svg" xmlns:xlink="http://www.w3.org/1999/xlink" viewBox="0 0 170.9 174"><defs><style>.cls-1{fill:none;}.cls-2{fill:#fff;}.cls-3{clip-path:url(#clip-path);}.cls-4{fill:#e8ebec;}.cls-5{fill:#bdc3d8;}.cls-6{fill:#0f615d;}</style><clipPath id="clip-path"><rect class="cls-1" x="26" y="15" width="119" height="144.45"/></clipPath></defs><path class="cls-2" d="M0,20A20,20,0,0,1,20,0H150.9a20,20,0,0,1,20,20V154a20,20,0,0,1-20,20H20A20,20,0,0,1,0,154Z"/><g class="cls-3"><path class="cls-4" d="M96.31,159.45A24.86,24.86,0,1,0,71.4,134.59,24.88,24.88,0,0,0,96.31,159.45Z"/><path class="cls-4" d="M47.35,101.76A21.31,21.31,0,1,0,26,80.45,21.33,21.33,0,0,0,47.35,101.76Z"/><path class="cls-4" d="M109.41,86A35.52,35.52,0,1,0,73.82,50.51,35.55,35.55,0,0,0,109.41,86Z"/><path class="cls-5" d="M113.38,35.15H50.31A5.34,5.34,0,0,0,45,40.48v78.13a5.34,5.34,0,0,0,5.34,5.33h63.07a5.34,5.34,0,0,0,5.34-5.33V40.48A5.34,5.34,0,0,0,113.38,35.15Z"/><path class="cls-2" d="M58.83,38.58h52.78v69.54a3.54,3.54,0,0,1-1,2.51,3.58,3.58,0,0,1-2.51,1H53.49V43.91a5.34,5.34,0,0,1,1.57-3.77A5.19,5.19,0,0,1,56.79,39a5.31,5.31,0,0,1,2-.41Z"/><path class="cls-6" d="M113.11,125.27H50.29c-3.1,0-5.6-3-5.6-6.66V40.48c0-3.67,2.5-6.66,5.6-6.66h62.82A6.3,6.3,0,0,1,117.29,36a6.2,6.2,0,0,1,1.44,4.48v78.13C118.73,122.27,116.21,125.27,113.11,125.27ZM50.29,36.49a3.72,3.72,0,0,0-3.36,4v78.13a3.68,3.68,0,0,0,.86,2.68,3.77,3.77,0,0,0,2.5,1.32h62.82a3.76,3.76,0,0,0,2.51-1.31,3.71,3.71,0,0,0,.87-2.69V40.48a3.72,3.72,0,0,0-3.38-4Z"/><path class="cls-2" d="M64.69,67.12h39.15V93.75a5.33,5.33,0,0,1-5.34,5.33H61.13V70.67a3.51,3.51,0,0,1,.27-1.36,3.58,3.58,0,0,1,.77-1.15,3.36,3.36,0,0,1,1.16-.77A3.51,3.51,0,0,1,64.69,67.12Z"/><path class="cls-2" d="M111.88,123.79c-.14-3.55-4.41-6.53-10.67-7.1a30.4,30.4,0,0,0-10.49,1V78.39a5.14,5.14,0,0,0-10.09,0V97.92a5.59,5.59,0,0,0-8.89,0,5.61,5.61,0,0,0-7.35-.27,5.53,5.53,0,0,0-1.94,3.17,5.71,5.71,0,0,0-2.71-.69,5.57,5.57,0,0,0-5.57,5.06,1.82,1.82,0,0,0,0,.33v34.31H81.11c4.06,0,11.21-9.38,19.13-11.93,2.83-.91,11.16.78,11.16.78A9.26,9.26,0,0,0,111.88,123.79Z"/><path class="cls-5" d="M111.88,123.67c-.14-3.55-4.41-6.52-10.67-7.1a29.91,29.91,0,0,0-10.49.94V78.27a4.68,4.68,0,0,0-5-4.19,4.89,4.89,0,0,0-4.89,3.25,4.21,4.21,0,0,1,.71,0c2.77,0,5.05,1.67,5.05,4v38a2.55,2.55,0,0,0,.23,1,2.5,2.5,0,0,0,.66.85,2.35,2.35,0,0,0,.95.5,2.46,2.46,0,0,0,1.08,0,30.06,30.06,0,0,1,7.58-.3c5.94.53,13.21,3.78,14.15,7.1h.1A9.37,9.37,0,0,0,111.88,123.67Z"/><path class="cls-6" d="M81,141.09H54a1.38,1.38,0,0,1-.94-.39,1.33,1.33,0,0,1-.39-.94V105.45a4.34,4.34,0,0,1,0-.51,6.9,6.9,0,0,1,6.9-6.22,6.75,6.75,0,0,1,1.89.27,6.94,6.94,0,0,1,6.28-4,6.75,6.75,0,0,1,3.66,1,7.12,7.12,0,0,1,7.8-1V78.39a6.42,6.42,0,0,1,6.38-5.53A6.42,6.42,0,0,1,92,78.39v37.5a32,32,0,0,1,9.27-.57c7,.63,11.76,4,11.94,8.37a10.43,10.43,0,0,1-.83,5.57,1.33,1.33,0,0,1-1.41.61c-3.08-.62-8.67-1.41-10.48-.82-3.88,1.24-7.65,4.32-11,7S83.37,141.09,81,141.09Zm-25.6-2.66H81c1.48,0,4.22-2.24,6.87-4.39,3.56-2.84,7.49-6.07,11.85-7.47,2.5-.8,8.17,0,10.68.51a12.49,12.49,0,0,0,.2-3.23c-.11-2.9-4.11-5.33-9.52-5.83a29.31,29.31,0,0,0-10,.91,1.3,1.3,0,0,1-.62,0,1.33,1.33,0,0,1-.56-.24,1.37,1.37,0,0,1-.38-.48,1.31,1.31,0,0,1-.14-.59V78.39A3.36,3.36,0,0,0,88,76.24a3.4,3.4,0,0,0-2.42-.69,3.38,3.38,0,0,0-3.71,2.84V97.92a1.29,1.29,0,0,1-.9,1.26,1.36,1.36,0,0,1-1.5-.46A4.18,4.18,0,0,0,78,97.43a4.12,4.12,0,0,0-3.84,0,4.07,4.07,0,0,0-1.49,1.3,1.39,1.39,0,0,1-.43.37,1.42,1.42,0,0,1-.54.17,1.49,1.49,0,0,1-.55-.07,1.32,1.32,0,0,1-.48-.29,4.19,4.19,0,0,0-2-1.07,4.22,4.22,0,0,0-4.13,1.28,4.31,4.31,0,0,0-1,2,1.26,1.26,0,0,1-.26.56,1.47,1.47,0,0,1-.48.38,1.36,1.36,0,0,1-1.2,0,4.47,4.47,0,0,0-2.06-.53,4.25,4.25,0,0,0-4.22,3.73v33.19Z"/><path class="cls-5" d="M81,139.76H54v9H81Z"/><path class="cls-2" d="M75.61,139.76H54v5.49H73.83a1.78,1.78,0,0,0,1.78-1.78Z"/><path class="cls-6" d="M81,150.13H54a1.39,1.39,0,0,1-.94-.4,1.29,1.29,0,0,1-.39-.93v-9a1.32,1.32,0,0,1,.39-.94,1.33,1.33,0,0,1,.94-.39H81a1.54,1.54,0,0,1,.52.09,1.42,1.42,0,0,1,.43.29,1.3,1.3,0,0,1,.29.44,1.25,1.25,0,0,1,.1.51v9A1.33,1.33,0,0,1,81,150.13Zm-25.6-2.67H79.62v-6.37H55.35Z"/><path class="cls-6" d="M41.55,137.7H34.44a1.33,1.33,0,0,1-1.34-1.33,1.32,1.32,0,0,1,.39-.94,1.34,1.34,0,0,1,.95-.39h7.11a1.34,1.34,0,0,1,1,.39,1.32,1.32,0,0,1,.39.94,1.33,1.33,0,0,1-1.34,1.33Z"/><path class="cls-6" d="M38,141.25a1.32,1.32,0,0,1-.93-.4,1.3,1.3,0,0,1-.4-.93v-7.1a1.34,1.34,0,1,1,2.67,0v7.1a1.34,1.34,0,0,1-.4.93,1.32,1.32,0,0,1-.94.4Z"/><path class="cls-6" d="M102.06,146.58H94.94a1.34,1.34,0,0,1,0-2.67h7.12a1.34,1.34,0,0,1,0,2.67Z"/><path class="cls-6" d="M98.5,150.13a1.39,1.39,0,0,1-.94-.4,1.29,1.29,0,0,1-.39-.93v-7.11a1.33,1.33,0,0,1,2.66,0v7.11a1.33,1.33,0,0,1-1.33,1.33Z"/><path class="cls-6" d="M141.23,143h-7.12a1.37,1.37,0,0,1-1-.39,1.34,1.34,0,0,1,0-1.89,1.37,1.37,0,0,1,1-.39h7.12a1.34,1.34,0,0,1,0,2.67Z"/><path class="cls-6" d="M137.67,146.58a1.36,1.36,0,0,1-.95-.39,1.33,1.33,0,0,1-.39-.94v-7.11a1.33,1.33,0,0,1,.39-.94,1.36,1.36,0,0,1,.95-.39,1.33,1.33,0,0,1,1.33,1.33v7.11a1.31,1.31,0,0,1-.39.93A1.39,1.39,0,0,1,137.67,146.58Z"/><path class="cls-6" d="M125.19,135.92h-7.12a1.33,1.33,0,0,1-.94-.39,1.32,1.32,0,0,1-.39-.94,1.33,1.33,0,0,1,1.33-1.33h7.12a1.33,1.33,0,0,1,1.34,1.33,1.32,1.32,0,0,1-.39.94,1.34,1.34,0,0,1-1,.39Z"/><path class="cls-6" d="M121.63,139.48a1.37,1.37,0,0,1-1.33-1.34V131a1.34,1.34,0,0,1,2.67,0v7.1a1.3,1.3,0,0,1-.39.94A1.35,1.35,0,0,1,121.63,139.48Z"/><path class="cls-6" d="M90.15,94.8A.85.85,0,0,0,91,94V62.62a.91.91,0,0,0-.06-.32,1,1,0,0,0-.19-.27.75.75,0,0,0-.27-.18.86.86,0,0,0-.91.18.84.84,0,0,0-.26.59V93.91a.78.78,0,0,0,0,.34.91.91,0,0,0,.19.29.77.77,0,0,0,.28.19A.75.75,0,0,0,90.15,94.8Z"/><path class="cls-2" d="M70,42.58H68.87A20.11,20.11,0,0,0,89,62.62h1.12A20.11,20.11,0,0,0,70,42.58Z"/><path class="cls-5" d="M70,42.58h1.26A20.14,20.14,0,0,0,90,60.33a19.55,19.55,0,0,1,.14,2.29H89a20.12,20.12,0,0,1-20.17-20.1H70Z"/><path class="cls-6" d="M68,42.58a.88.88,0,0,1,.07-.32.71.71,0,0,1,.18-.27.8.8,0,0,1,.27-.18.71.71,0,0,1,.32-.07H70A21,21,0,0,1,91,62.62a.82.82,0,0,1-.25.59.8.8,0,0,1-.59.25H89A21,21,0,0,1,68,42.58Zm2,.83h-.25A19.3,19.3,0,0,0,89,61.84h.25A19.3,19.3,0,0,0,70,43.41Z"/><path class="cls-6" d="M90.15,63.51a.92.92,0,0,0,.43-.11.64.64,0,0,0,.24-.22.8.8,0,0,0,.15-.29.92.92,0,0,0,0-.33,1,1,0,0,0-.11-.31A44.62,44.62,0,0,0,74.17,46a.68.68,0,0,0-.31-.08.72.72,0,0,0-.33,0,.83.83,0,0,0-.29.16,1,1,0,0,0-.2.26.72.72,0,0,0-.08.32.75.75,0,0,0,0,.33,1,1,0,0,0,.16.28,1.05,1.05,0,0,0,.27.2,43.78,43.78,0,0,1,16,15.57.81.81,0,0,0,.31.3.8.8,0,0,0,.4.11Z"/><path class="cls-2" d="M110.35,54.86h1.12A20.13,20.13,0,0,1,99,73.53a20.2,20.2,0,0,1-7.75,1.52H90.15a20.16,20.16,0,0,1,20.2-20.19Z"/><path class="cls-5" d="M110.35,54.86h1.12v.31A20.09,20.09,0,0,0,94.71,74.7a19,19,0,0,1-3.36.3H90.22a20.14,20.14,0,0,1,12.42-18.6A20.4,20.4,0,0,1,110.35,54.86Z"/><path class="cls-6" d="M89.3,75.05a21,21,0,0,1,21-21h1.12a.87.87,0,0,1,.32.06.85.85,0,0,1,.27.18,1,1,0,0,1,.19.27.91.91,0,0,1,.06.32,21,21,0,0,1-21,20.94H90.21a.89.89,0,0,1-.61-.19A.91.91,0,0,1,89.3,75.05Zm21-19.35A19.33,19.33,0,0,0,91.06,74.13h.27A19.33,19.33,0,0,0,110.62,55.7Z"/><path class="cls-6" d="M90.15,75.8a.85.85,0,0,0,.72-.41,43.63,43.63,0,0,1,16-15.57.9.9,0,0,0,.4-.48.86.86,0,0,0-.06-.63.81.81,0,0,0-.46-.41.86.86,0,0,0-.63,0A44.47,44.47,0,0,0,89.44,74.54a1,1,0,0,0-.12.42.79.79,0,0,0,.12.42.77.77,0,0,0,.31.31.88.88,0,0,0,.42.11Z"/></g></svg>