<svg id="Layer_1" data-name="Layer 1" xmlns="http://www.w3.org/2000/svg" viewBox="0 0 170.9 174"><defs><style>.cls-1{fill:#fff;}.cls-2{fill:#e8ebec;}.cls-3{fill:#bdc3d8;}.cls-4{fill:#0f615d;}</style></defs><path class="cls-1" d="M0,20A20,20,0,0,1,20,0H150.9a20,20,0,0,1,20,20V154a20,20,0,0,1-20,20H20A20,20,0,0,1,0,154Z"/><path class="cls-2" d="M109.62,139.08a18.16,18.16,0,1,0-18.15-18.15A18.16,18.16,0,0,0,109.62,139.08Z"/><path class="cls-2" d="M43.82,118.79a15.56,15.56,0,1,0-15.56-15.56A15.56,15.56,0,0,0,43.82,118.79Z"/><path class="cls-2" d="M115.66,88.12A25.93,25.93,0,1,0,89.73,62.19,25.93,25.93,0,0,0,115.66,88.12Z"/><path class="cls-1" d="M116.57,66.43v1A5.9,5.9,0,0,0,116.57,66.43Z"/><path class="cls-3" d="M116.5,65.34v1.09A5,5,0,0,0,116.5,65.34Z"/><path class="cls-3" d="M137.4,83.43a9.4,9.4,0,0,0-6.22,1.41A17.25,17.25,0,0,1,126,87.09,40.47,40.47,0,0,0,97.47,47.84,43.13,43.13,0,0,1,87.1,126.62l-1.3.32a40.45,40.45,0,0,0,39.05-31.08,17,17,0,0,1,4.47,3.46,9.47,9.47,0,0,0,16.32-7.46,9.48,9.48,0,0,0-8.24-8.43Z"/><path class="cls-1" d="M97.39,47.89c-.84-.26-1.68-.52-2.59-.72.09-.18.21-.35.3-.52a17.39,17.39,0,0,1,3.16-3.89A9.46,9.46,0,1,0,83.8,40.94,19.91,19.91,0,0,1,85,43.07a17.46,17.46,0,0,1,1.1,3.09,40.51,40.51,0,0,0-40,31.11,16.74,16.74,0,0,1-4.46-3.47,9.57,9.57,0,0,0-3.08-2.19,9.41,9.41,0,0,0-3.69-.79h-.68A9.46,9.46,0,0,0,32.62,89.5c.31.06.62.13.93.17a9.42,9.42,0,0,0,6.23-1.4A17.2,17.2,0,0,1,45,86a40.48,40.48,0,0,0,31.12,40,14.68,14.68,0,0,1-1.47,2.27,16,16,0,0,1-2,2.19,9.47,9.47,0,0,0-1.22,12.41,9.48,9.48,0,0,0,15.5-.14,9.48,9.48,0,0,0,.19-10.43,16.72,16.72,0,0,1-2.2-5.07v-.14h.72l1.3-.32A43.12,43.12,0,0,0,97.26,48Z"/><path class="cls-4" d="M79.18,148a11.08,11.08,0,0,1-3.61-.61,10.76,10.76,0,0,1-3.76-18,15.79,15.79,0,0,0,2.35-2.68,42,42,0,0,1-30.42-39,16.42,16.42,0,0,0-3.23,1.59,10.66,10.66,0,0,1-3.93,1.52,10.85,10.85,0,0,1-4.21-.11,10.7,10.7,0,0,1-3.85-1.72,10.83,10.83,0,0,1-3.91-12.37,10.65,10.65,0,0,1,3.05-4.51,10.75,10.75,0,0,1,14.94.75,16.32,16.32,0,0,0,2.7,2.35A42,42,0,0,1,84.35,44.74a15.71,15.71,0,0,0-1.61-3.23,10.66,10.66,0,0,1-1.52-3.93,10.69,10.69,0,0,1,1.84-8.06,10.83,10.83,0,0,1,12.37-3.91h0a10.75,10.75,0,0,1,3.75,18,17.31,17.31,0,0,0-2.35,2.7,42,42,0,0,1,30.42,39.05,16.87,16.87,0,0,0,3.24-1.61,10.76,10.76,0,0,1,8.15-1.41,10.89,10.89,0,0,1,3.85,1.73,10.76,10.76,0,0,1-5.63,19.52,10.79,10.79,0,0,1-8.47-3.4,17.63,17.63,0,0,0-2.68-2.35,42,42,0,0,1-39,30.45,16.5,16.5,0,0,0,1.59,3.24,10.63,10.63,0,0,1,1.68,5.42,10.7,10.7,0,0,1-5.28,9.59A10.66,10.66,0,0,1,79.18,148ZM45,84.62a1.25,1.25,0,0,1,.8.29,1.33,1.33,0,0,1,.37.45,1.44,1.44,0,0,1,.13.57,39.35,39.35,0,0,0,30.13,38.69,1.28,1.28,0,0,1,.52.26,1.38,1.38,0,0,1,.36.47,1.36,1.36,0,0,1,.13.57,1.44,1.44,0,0,1-.13.57,18.74,18.74,0,0,1-3.72,4.81,8.15,8.15,0,0,0-.6,11.31,8.2,8.2,0,0,0,3.42,2.33,8.36,8.36,0,0,0,3.61.43,8.19,8.19,0,0,0,7.26-7.12,8.05,8.05,0,0,0-1.21-5.37,18,18,0,0,1-2.41-5.62,1.26,1.26,0,0,1,0-.58,1.32,1.32,0,0,1,.26-.53,1.44,1.44,0,0,1,.46-.35,1.58,1.58,0,0,1,.56-.13,39.38,39.38,0,0,0,38.69-30.13,1.25,1.25,0,0,1,.26-.53,1.19,1.19,0,0,1,.47-.35,1.22,1.22,0,0,1,.57-.13,1.28,1.28,0,0,1,.57.13,18,18,0,0,1,4.81,3.73,8.17,8.17,0,0,0,12.9-9.87,8.2,8.2,0,0,0-6-3.83,8,8,0,0,0-5.37,1.22,18.56,18.56,0,0,1-5.62,2.41,1.26,1.26,0,0,1-.58,0,1.24,1.24,0,0,1-.53-.25,1.25,1.25,0,0,1-.36-.46,1.29,1.29,0,0,1-.12-.58A39.38,39.38,0,0,0,94.58,48.35a1.28,1.28,0,0,1-.52-.26,1.16,1.16,0,0,1-.36-.46,1.23,1.23,0,0,1-.14-.57,1.3,1.3,0,0,1,.14-.57,18,18,0,0,1,3.73-4.81,8,8,0,0,0,2.21-3.49A8.16,8.16,0,0,0,94.6,28a8.17,8.17,0,0,0-7.07.78,8.07,8.07,0,0,0-3.79,5.91A7.94,7.94,0,0,0,85,40.09a18.5,18.5,0,0,1,2.41,5.61,1.31,1.31,0,0,1,0,.59,1.27,1.27,0,0,1-.71.89,1.43,1.43,0,0,1-.58.12h-.59A39.37,39.37,0,0,0,47.39,77.44a1.41,1.41,0,0,1-.26.52,1.16,1.16,0,0,1-.46.36,1.31,1.31,0,0,1-1.14,0,18,18,0,0,1-4.81-3.73,8.18,8.18,0,0,0-3.49-2.2A8.19,8.19,0,0,0,29.4,74a8.21,8.21,0,0,0-1.55,10.5,8.13,8.13,0,0,0,11.28,2.56,18.75,18.75,0,0,1,5.61-2.41Z"/><path class="cls-3" d="M118.67,112.57a8.1,8.1,0,0,0-5.27-3,12.94,12.94,0,0,1-8.53-4.4v-.06l-6,4.69a.64.64,0,0,1,.1.13,12.65,12.65,0,0,1,2.11,9.23,8,8,0,0,0,2.71,7.06,9.5,9.5,0,0,0,10.48.74C120.13,123.88,122.05,116.9,118.67,112.57Z"/><path class="cls-4" d="M109.29,129.48a9.88,9.88,0,0,1-6.48-2.27A9.38,9.38,0,0,1,99.66,119a11.56,11.56,0,0,0-1.85-8.3,1.13,1.13,0,0,1-.26-.45,1.19,1.19,0,0,1-.06-.53,1.33,1.33,0,0,1,.16-.5,1.3,1.3,0,0,1,.34-.4,1.18,1.18,0,0,1,.42-.24,1.38,1.38,0,0,1,.49-.06,1.23,1.23,0,0,1,.47.14,1.18,1.18,0,0,1,.38.32l.08.09a14,14,0,0,1,2.41,10.2,6.83,6.83,0,0,0,.38,3.26,6.69,6.69,0,0,0,1.89,2.68,8.16,8.16,0,0,0,9.07.58,9.83,9.83,0,0,0,3.33-2.71,10,10,0,0,0,1.86-3.87,7,7,0,0,0-1.2-5.87,6.77,6.77,0,0,0-4.44-2.51,14.17,14.17,0,0,1-9.36-4.88l1-.86,1-.78a11.92,11.92,0,0,0,7.78,3.89,9.34,9.34,0,0,1,3.66,1.3,9.33,9.33,0,0,1,4.27,6.3,9.45,9.45,0,0,1-.15,3.89,12.48,12.48,0,0,1-6.58,8.33,11.73,11.73,0,0,1-5.47,1.43Z"/><path class="cls-3" d="M70,53.83a7.91,7.91,0,0,0-2.71-7A9.48,9.48,0,0,0,56.78,46c-5.91,3.09-7.77,10.06-4.45,14.4a8,8,0,0,0,5.27,3,13,13,0,0,1,8.53,4.41h0l6-4.68L72,63A12.68,12.68,0,0,1,70,53.83Z"/><path class="cls-3" d="M126,57.78c-3.09-5.91-10.07-7.77-14.4-4.45a8.06,8.06,0,0,0-3,5.27,12.86,12.86,0,0,1-4.4,8.53h0l4.7,6L109,73a12.74,12.74,0,0,1,9.23-2.11,7.91,7.91,0,0,0,7.05-2.71A9.53,9.53,0,0,0,126,57.78Z"/><path class="cls-3" d="M62.06,99.91A12.64,12.64,0,0,1,52.83,102a8.1,8.1,0,0,0-3.87.47,7.92,7.92,0,0,0-3.18,2.24A9.48,9.48,0,0,0,45,115.21c3.09,5.92,10.06,7.78,14.4,4.46a8.11,8.11,0,0,0,3-5.27,12.93,12.93,0,0,1,4.41-8.53l-4.68-6Z"/><path class="cls-3" d="M82,77.61a9.53,9.53,0,0,0,7.3,17.59l5.19-12.44a9.54,9.54,0,0,0-8.83-5.89,9.39,9.39,0,0,0-3.66.74Z"/><path class="cls-4" d="M66.13,69.16a1.49,1.49,0,0,1-.54-.14,1.41,1.41,0,0,1-.43-.34,11.8,11.8,0,0,0-7.78-4,9.4,9.4,0,0,1-6.11-3.48,9.57,9.57,0,0,1-1.68-8A12.47,12.47,0,0,1,52,48.31a12.64,12.64,0,0,1,4.21-3.44,10.8,10.8,0,0,1,11.92.92A9.27,9.27,0,0,1,71.23,54a11.66,11.66,0,0,0,1.85,8.3l.11.13a1.37,1.37,0,0,1,.23.45,1.4,1.4,0,0,1,0,.5,1.3,1.3,0,0,1-.16.48,1.23,1.23,0,0,1-.33.39,1.47,1.47,0,0,1-.45.23,1.2,1.2,0,0,1-.5,0,1.14,1.14,0,0,1-.48-.16,1.34,1.34,0,0,1-.39-.32L71,63.85a13.89,13.89,0,0,1-2.37-10.16,6.65,6.65,0,0,0-2.27-5.93,8.16,8.16,0,0,0-9.07-.58A9.86,9.86,0,0,0,54,49.9a9.73,9.73,0,0,0-1.86,3.87,6.94,6.94,0,0,0,1.19,5.86,6.76,6.76,0,0,0,4.44,2.5A14.09,14.09,0,0,1,67.13,67a1.32,1.32,0,0,1,.29,1,1.23,1.23,0,0,1-.16.49,1.26,1.26,0,0,1-.34.39,1.32,1.32,0,0,1-.79.29Z"/><path class="cls-4" d="M108.81,74.48a1.2,1.2,0,0,1-.56-.12,1.28,1.28,0,0,1-.46-.37,1.25,1.25,0,0,1-.26-.95,1.27,1.27,0,0,1,.48-.86l.14-.12a13.78,13.78,0,0,1,10.15-2.37,6.72,6.72,0,0,0,3.26-.39,6.57,6.57,0,0,0,2.68-1.88,8.17,8.17,0,0,0,.58-9.08A9.68,9.68,0,0,0,122.11,55a9.86,9.86,0,0,0-3.87-1.86,6.92,6.92,0,0,0-3.07-.07,6.84,6.84,0,0,0-2.8,1.26,6.73,6.73,0,0,0-2.51,4.43A14.13,14.13,0,0,1,105,68.16l-.86-1-.78-1a11.74,11.74,0,0,0,3.89-7.77,9.44,9.44,0,0,1,1.3-3.67,9.27,9.27,0,0,1,6.3-4.26,9.12,9.12,0,0,1,3.89.15,12.45,12.45,0,0,1,4.9,2.35,12.68,12.68,0,0,1,3.44,4.22,10.81,10.81,0,0,1-.91,11.91,9.3,9.3,0,0,1-3.7,2.61,9.13,9.13,0,0,1-4.48.54,11.71,11.71,0,0,0-8.3,1.86l-.13.1A1.23,1.23,0,0,1,108.81,74.48Z"/><path class="cls-4" d="M54.49,122.62a10.9,10.9,0,0,1-2.28-.24,12.48,12.48,0,0,1-8.33-6.58,10.76,10.76,0,0,1,.91-11.91A9.27,9.27,0,0,1,53,100.74a11.67,11.67,0,0,0,8.3-1.86,1.43,1.43,0,0,1,1-.28,1.35,1.35,0,0,1,.91.47,1.28,1.28,0,0,1,.27.91,1.31,1.31,0,0,1-.42.85l-.11.08a14,14,0,0,1-10.2,2.41,6.65,6.65,0,0,0-5.93,2.27,8.16,8.16,0,0,0-.58,9.07A9.83,9.83,0,0,0,48.9,118a10,10,0,0,0,3.87,1.87,7,7,0,0,0,5.86-1.21,6.71,6.71,0,0,0,2.5-4.43A14.07,14.07,0,0,1,66,104.85a1.09,1.09,0,0,1,.43-.18,1.42,1.42,0,0,1,.46,0,1.3,1.3,0,0,1,.43.2,1.26,1.26,0,0,1,.31.34,1,1,0,0,1,.25.38,1.12,1.12,0,0,1,0,.88,1,1,0,0,1-.25.38,11.88,11.88,0,0,0-4,7.78,9.35,9.35,0,0,1-3.47,6.1,9.1,9.1,0,0,1-5.72,1.88Z"/><path class="cls-4" d="M85.63,97.22a10.76,10.76,0,0,1-9.53-5.71A10.82,10.82,0,0,1,81,76.64a10.81,10.81,0,0,1,14.61,5.62,1.36,1.36,0,0,1,0,1,1.47,1.47,0,0,1-.28.42,1.23,1.23,0,0,1-.43.28,1.16,1.16,0,0,1-.49.1,1.24,1.24,0,0,1-.5-.1,1.29,1.29,0,0,1-.7-.7A8.23,8.23,0,0,0,77.54,88,8.21,8.21,0,0,0,84,94.48,8.24,8.24,0,0,0,88.77,94a1.31,1.31,0,0,1,1,0,1.28,1.28,0,0,1,.7.71,1.31,1.31,0,0,1,0,1,1.28,1.28,0,0,1-.71.7,10.55,10.55,0,0,1-4.12.81Z"/><path class="cls-4" d="M37.34,102.71a3.56,3.56,0,0,1-3.5-4.26,3.61,3.61,0,0,1,1-1.83,3.45,3.45,0,0,1,1.82-1,3.54,3.54,0,0,1,2.06.2,3.55,3.55,0,0,1,2.2,3.29,3.53,3.53,0,0,1-1,2.52A3.57,3.57,0,0,1,37.34,102.71Zm0-5.19a1.6,1.6,0,0,0-.9.28,1.56,1.56,0,0,0-.6.72,1.68,1.68,0,0,0-.09.94A1.6,1.6,0,0,0,37,100.73a1.68,1.68,0,0,0,.94-.09,1.56,1.56,0,0,0,.72-.6,1.6,1.6,0,0,0,.28-.9,1.64,1.64,0,0,0-1.62-1.62Z"/><path class="cls-4" d="M109.62,95.25a3.55,3.55,0,1,1,2.52-1A3.55,3.55,0,0,1,109.62,95.25Zm0-5.18a1.62,1.62,0,0,0-1.5,1A1.56,1.56,0,0,0,108,92a1.6,1.6,0,0,0,.44.83,1.62,1.62,0,0,0,.83.45,1.68,1.68,0,0,0,.94-.09,1.62,1.62,0,0,0-.62-3.12Z"/><path class="cls-4" d="M116.62,47.08a3.61,3.61,0,0,1-3.3-2.21,3.62,3.62,0,0,1-.2-2.06,3.6,3.6,0,0,1,2.8-2.8,3.63,3.63,0,0,1,2.06.21,3.53,3.53,0,0,1,1.6,1.31,3.6,3.6,0,0,1,.6,2,3.57,3.57,0,0,1-3.56,3.57Zm0-5.19a1.61,1.61,0,0,0-.9.27,1.59,1.59,0,0,0-.6.73A1.62,1.62,0,0,0,117.24,45a1.59,1.59,0,0,0,.73-.6,1.69,1.69,0,0,0,.27-.9,1.64,1.64,0,0,0-1.62-1.62Z"/><path class="cls-4" d="M55.35,78.23a3.55,3.55,0,0,1-3.3-2.2,3.54,3.54,0,0,1-.2-2.06,3.53,3.53,0,0,1,2.8-2.8,3.54,3.54,0,0,1,2.06.2,3.56,3.56,0,0,1-1.36,6.86Zm0-5.19a1.65,1.65,0,0,0-1.5,1,1.63,1.63,0,0,0,.35,1.76,1.6,1.6,0,0,0,.83.44,1.52,1.52,0,0,0,.94-.09,1.6,1.6,0,0,0,.72-.59,1.62,1.62,0,0,0,.28-.9,1.6,1.6,0,0,0-.48-1.15A1.62,1.62,0,0,0,55.35,73Z"/><path class="cls-4" d="M135.61,65.75a3.53,3.53,0,0,1-2-.61,3.48,3.48,0,0,1-1.31-1.6,3.54,3.54,0,0,1-.2-2.06,3.49,3.49,0,0,1,1-1.82,3.57,3.57,0,0,1,6.09,2.52,3.59,3.59,0,0,1-3.57,3.57Zm0-5.19a1.61,1.61,0,0,0-.9.27,1.63,1.63,0,0,0-.59.73,1.59,1.59,0,0,0-.1.94,1.7,1.7,0,0,0,.45.83,1.6,1.6,0,0,0,.83.44,1.61,1.61,0,0,0,1.66-.69,1.61,1.61,0,0,0,.27-.9,1.6,1.6,0,0,0-1.62-1.62Z"/><path class="cls-4" d="M72,39.82a3.67,3.67,0,0,1-2-.61,3.56,3.56,0,0,1-1.51-3.65,3.67,3.67,0,0,1,1-1.83,3.57,3.57,0,0,1,5.48.52,3.47,3.47,0,0,1,.61,2,3.42,3.42,0,0,1-.26,1.38,3.61,3.61,0,0,1-1.94,1.95A3.6,3.6,0,0,1,72,39.82Zm0-5.19a1.63,1.63,0,0,0-1.15,2.77,1.64,1.64,0,0,0,1.77.35A1.62,1.62,0,0,0,72,34.63Z"/></svg>