<svg id="Layer_1" data-name="Layer 1" xmlns="http://www.w3.org/2000/svg" viewBox="0 0 170.9 174"><defs><style>.cls-1{fill:#fff;}.cls-2{fill:#e8ebec;}.cls-3{fill:#bdc3d8;}.cls-4{fill:#0f615d;}</style></defs><path class="cls-1" d="M0,20A20,20,0,0,1,20,0H150.9a20,20,0,0,1,20,20V154a20,20,0,0,1-20,20H20A20,20,0,0,1,0,154Z"/><path class="cls-2" d="M43.55,96.6A22.64,22.64,0,1,0,21,74,22.59,22.59,0,0,0,43.55,96.6Z"/><path class="cls-2" d="M88.65,147.66a19.4,19.4,0,1,0-19.33-19.4A19.37,19.37,0,0,0,88.65,147.66Z"/><path class="cls-2" d="M117.79,90.67A32.34,32.34,0,1,0,85.57,58.33,32.28,32.28,0,0,0,117.79,90.67Z"/><path class="cls-1" d="M111.2,32.47H40.33a4.84,4.84,0,0,0-4.83,4.85v93.77a4.84,4.84,0,0,0,4.83,4.85H111.2a4.84,4.84,0,0,0,4.83-4.85V37.32A4.84,4.84,0,0,0,111.2,32.47Z"/><path class="cls-3" d="M99.92,51.87H116v79.22a4.86,4.86,0,0,1-1.42,3.43,4.8,4.8,0,0,1-3.41,1.42H50V102A50,50,0,0,1,99.92,51.87Z"/><path class="cls-4" d="M111.2,137.15H40.33a6.06,6.06,0,0,1-6-6.06V37.32a6.06,6.06,0,0,1,6-6.07h70.87a6.06,6.06,0,0,1,6,6.07v93.77a6.15,6.15,0,0,1-1.78,4.29,6.17,6.17,0,0,1-2,1.31,6,6,0,0,1-2.32.46ZM40.33,33.68a3.62,3.62,0,0,0-2.56,1.06,3.67,3.67,0,0,0-1.07,2.58v93.77a3.65,3.65,0,0,0,3.63,3.64H111.2a3.75,3.75,0,0,0,1.4-.27,3.6,3.6,0,0,0,1.18-.79,3.6,3.6,0,0,0,1.08-2.58V37.32a3.67,3.67,0,0,0-1.07-2.58,3.62,3.62,0,0,0-2.56-1.06Z"/><path class="cls-1" d="M54.82,32.47H96.7v8.08a4.83,4.83,0,0,1-4.83,4.85H59.66a4.85,4.85,0,0,1-4.84-4.85Z"/><path class="cls-3" d="M91.87,45.4H64.49a6.47,6.47,0,0,1,6.44-6.47H96.7v1.62a4.83,4.83,0,0,1-4.83,4.85Z"/><path class="cls-4" d="M91.87,46.61H59.66a6,6,0,0,1-6-6.06V32.47a1.25,1.25,0,0,1,.35-.86,1.22,1.22,0,0,1,.86-.36H96.73a1.27,1.27,0,0,1,.85.36,1.22,1.22,0,0,1,.36.86v8.08a6.09,6.09,0,0,1-3.75,5.61,6,6,0,0,1-2.32.45ZM56,33.68v6.87a3.64,3.64,0,0,0,3.63,3.64H91.87a3.75,3.75,0,0,0,1.4-.27,3.6,3.6,0,0,0,1.18-.79,3.68,3.68,0,0,0,.8-1.18,3.72,3.72,0,0,0,.28-1.4V33.68Z"/><path class="cls-1" d="M106.37,121.39A32.34,32.34,0,1,0,74.15,89.05,32.28,32.28,0,0,0,106.37,121.39Z"/><path class="cls-3" d="M138.58,89.05a32.26,32.26,0,0,0-12.45-25.51A32.28,32.28,0,0,0,99.52,87.21a32.39,32.39,0,0,0,11.31,33.84,32.3,32.3,0,0,0,27.75-32Z"/><path class="cls-4" d="M106.37,122.6A33.53,33.53,0,1,1,130,112.76a33.37,33.37,0,0,1-23.62,9.84Zm0-64.67A31.09,31.09,0,1,0,128.3,67a31,31,0,0,0-21.93-9.11Z"/><path class="cls-4" d="M82,81.81a1.28,1.28,0,0,1-.39,0,1.2,1.2,0,0,1-.69-.61,1.19,1.19,0,0,1,0-.93A27,27,0,0,1,96.24,64a1.1,1.1,0,0,1,.47-.1,1.36,1.36,0,0,1,.48.09,1.38,1.38,0,0,1,.4.28,1.36,1.36,0,0,1,.26.41,1.28,1.28,0,0,1,.1.47,1.1,1.1,0,0,1-.08.48,1.26,1.26,0,0,1-.28.4,1.09,1.09,0,0,1-.4.27,24.64,24.64,0,0,0-14,14.8,1.13,1.13,0,0,1-.47.54,1.17,1.17,0,0,1-.7.16Z"/><path class="cls-4" d="M80.63,91.57a1.16,1.16,0,0,1-.83-.33,1.19,1.19,0,0,1-.38-.81V89.05c0-1,0-1.91.14-2.86a1.24,1.24,0,0,1,1.33-1.07,1.24,1.24,0,0,1,.45.14,1,1,0,0,1,.36.3,1.2,1.2,0,0,1,.26.89c-.08.87-.12,1.75-.12,2.6v1.26a1.26,1.26,0,0,1-.08.47,1.3,1.3,0,0,1-.24.41,1.19,1.19,0,0,1-.39.27,1,1,0,0,1-.45.11Z"/><path class="cls-4" d="M106.37,90.26a1.26,1.26,0,0,1-.47-.08,1.21,1.21,0,0,1-.74-1.13V56.72a1.25,1.25,0,0,1,.35-.86,1.21,1.21,0,0,1,.86-.35,1.19,1.19,0,0,1,.85.35,1.21,1.21,0,0,1,.35.86V86.14l20.8-20.72a1.19,1.19,0,0,1,.88-.45,1.4,1.4,0,0,1,.49.08,1.34,1.34,0,0,1,.42.28,1.21,1.21,0,0,1,.27.43,1.15,1.15,0,0,1,.08.49,1.37,1.37,0,0,1-.13.49,1.34,1.34,0,0,1-.32.39l-22.84,22.8a1.23,1.23,0,0,1-.85.33Z"/><path class="cls-4" d="M85.35,114.76a1.18,1.18,0,0,1-.79-.29,1.28,1.28,0,0,1-.29-.37,1.17,1.17,0,0,1-.07-.92,1.27,1.27,0,0,1,.23-.41l20.94-24.49a1.15,1.15,0,0,1,1.51-.26l27.9,16.16a1.31,1.31,0,0,1,.4.3,1.14,1.14,0,0,1,.25.44,1.2,1.2,0,0,1,0,.5,1.34,1.34,0,0,1-.15.48,1.2,1.2,0,0,1-.34.37,1.28,1.28,0,0,1-.46.21,1.4,1.4,0,0,1-.5,0,1.28,1.28,0,0,1-.46-.21l-27-15.65L86.18,114.34a1.35,1.35,0,0,1-.37.3,1.21,1.21,0,0,1-.46.12Z"/><path class="cls-1" d="M92,91.69a14.73,14.73,0,0,1,6.48-15,14.61,14.61,0,0,1,21.54,7,14.65,14.65,0,1,1-28,8Z"/><path class="cls-3" d="M120.77,86.43a14.55,14.55,0,0,0-2.42-5.78,13.62,13.62,0,0,0-3.66.17,14.7,14.7,0,0,0-9.37,22.94,13.62,13.62,0,0,0,3.66-.17,14.7,14.7,0,0,0,11.71-11.4,14.89,14.89,0,0,0,.08-5.76Z"/><path class="cls-4" d="M106.37,105a15.91,15.91,0,1,1,11.2-4.67,15.83,15.83,0,0,1-11.2,4.67Zm0-29.41a13.47,13.47,0,1,0,9.49,4,13.46,13.46,0,0,0-9.49-4Z"/><path class="cls-1" d="M53.21,55.1H46.77a1.61,1.61,0,0,0-1.61,1.62v6.46a1.61,1.61,0,0,0,1.61,1.62h6.44a1.61,1.61,0,0,0,1.61-1.62V56.72A1.61,1.61,0,0,0,53.21,55.1Z"/><path class="cls-1" d="M53.21,74.5H46.77a1.62,1.62,0,0,0-1.61,1.62v6.47a1.61,1.61,0,0,0,1.61,1.61h6.44a1.61,1.61,0,0,0,1.61-1.61V76.12A1.62,1.62,0,0,0,53.21,74.5Z"/><path class="cls-1" d="M53.21,93.92H46.77a1.61,1.61,0,0,0-1.61,1.62V102a1.62,1.62,0,0,0,1.61,1.62h6.44A1.62,1.62,0,0,0,54.82,102V95.54A1.61,1.61,0,0,0,53.21,93.92Z"/><path class="cls-1" d="M53.21,113.32H46.77a1.61,1.61,0,0,0-1.61,1.62v6.46A1.61,1.61,0,0,0,46.77,123h6.44a1.61,1.61,0,0,0,1.61-1.62v-6.46A1.61,1.61,0,0,0,53.21,113.32Z"/><path class="cls-3" d="M50,60h4.83v3.23a1.65,1.65,0,0,1-.47,1.15,1.61,1.61,0,0,1-1.14.47H48.38V61.57A1.6,1.6,0,0,1,50,60Z"/><path class="cls-3" d="M50,118.15h4.83v3.24A1.6,1.6,0,0,1,53.21,123H48.38v-3.23A1.62,1.62,0,0,1,50,118.15Z"/><path class="cls-3" d="M50,79.35h4.83v3.24a1.63,1.63,0,0,1-.47,1.14,1.61,1.61,0,0,1-1.14.47H48.38V81A1.62,1.62,0,0,1,50,79.35Z"/><path class="cls-3" d="M50,98.75h4.83V102a1.6,1.6,0,0,1-1.61,1.61H48.38v-3.23A1.62,1.62,0,0,1,50,98.75Z"/><path class="cls-4" d="M53.21,66H46.77A2.83,2.83,0,0,1,44,63.2V56.73a2.83,2.83,0,0,1,2.82-2.83h6.44a2.86,2.86,0,0,1,2,.84,2.81,2.81,0,0,1,.83,2V63.2A2.83,2.83,0,0,1,53.21,66Zm-6.44-9.7a.36.36,0,0,0-.28.12.38.38,0,0,0-.12.28V63.2a.41.41,0,0,0,.4.41h6.44a.41.41,0,0,0,.41-.41V56.73a.42.42,0,0,0-.12-.28.4.4,0,0,0-.29-.12Z"/><path class="cls-4" d="M53.21,85.43H46.77A2.83,2.83,0,0,1,44,82.6V76.13a2.83,2.83,0,0,1,.83-2,2.8,2.8,0,0,1,2-.82h6.44A2.8,2.8,0,0,1,56,76.13V82.6a2.83,2.83,0,0,1-2.82,2.83Zm-6.44-9.7a.36.36,0,0,0-.28.12.38.38,0,0,0-.12.28V82.6a.41.41,0,0,0,.4.41h6.44a.41.41,0,0,0,.41-.41V76.13a.42.42,0,0,0-.12-.28.4.4,0,0,0-.29-.12Z"/><path class="cls-4" d="M53.21,104.83H46.77A2.83,2.83,0,0,1,44,102V95.54a2.87,2.87,0,0,1,.83-2,2.8,2.8,0,0,1,2-.82h6.44a2.82,2.82,0,0,1,2,.82,2.86,2.86,0,0,1,.82,2V102a2.83,2.83,0,0,1-2.82,2.83Zm-6.44-9.7a.36.36,0,0,0-.28.12.4.4,0,0,0-.12.29V102a.41.41,0,0,0,.4.41h6.44a.41.41,0,0,0,.41-.41V95.54a.45.45,0,0,0-.12-.29.4.4,0,0,0-.29-.12Z"/><path class="cls-4" d="M53.21,124.23H46.77A2.83,2.83,0,0,1,44,121.4v-6.46a2.87,2.87,0,0,1,.83-2,2.8,2.8,0,0,1,2-.82h6.44a2.82,2.82,0,0,1,2,.82,2.86,2.86,0,0,1,.82,2v6.46a2.83,2.83,0,0,1-2.82,2.83Zm-6.44-9.7a.36.36,0,0,0-.28.12.4.4,0,0,0-.12.29v6.46a.41.41,0,0,0,.4.41h6.44a.41.41,0,0,0,.41-.41v-6.46a.45.45,0,0,0-.12-.29.4.4,0,0,0-.29-.12Z"/><path class="cls-4" d="M85.43,57.93H73.49a1.21,1.21,0,0,1-.85-2.07,1.17,1.17,0,0,1,.85-.35H85.43a1.17,1.17,0,0,1,.85.35,1.21,1.21,0,0,1-.85,2.07Z"/><path class="cls-4" d="M67.05,57.93H61.27a1.22,1.22,0,0,1-.86-2.07,1.21,1.21,0,0,1,.86-.35h5.78a1.17,1.17,0,0,1,.85.35,1.21,1.21,0,0,1-.85,2.07Z"/><path class="cls-4" d="M79,64.4H61.27a1.22,1.22,0,0,1-.86-.36,1.24,1.24,0,0,1-.35-.86A1.21,1.21,0,0,1,61.27,62H79a1.2,1.2,0,0,1,.86.36,1.17,1.17,0,0,1,.35.85A1.21,1.21,0,0,1,79,64.4Z"/><path class="cls-4" d="M70.93,77.35H61.27a1.22,1.22,0,0,1-.86-.36,1.24,1.24,0,0,1-.35-.86,1.21,1.21,0,0,1,1.21-1.21h9.66a1.21,1.21,0,0,1,1.21,1.21,1.24,1.24,0,0,1-.35.86A1.22,1.22,0,0,1,70.93,77.35Z"/><path class="cls-4" d="M69.32,83.81h-8a1.21,1.21,0,0,1-.86-.35,1.21,1.21,0,0,1,.86-2.07h8a1.21,1.21,0,0,1,.85,2.07,1.17,1.17,0,0,1-.85.35Z"/><path class="cls-4" d="M69.32,96.75h-8a1.21,1.21,0,0,1-1.21-1.21,1.24,1.24,0,0,1,.35-.86,1.22,1.22,0,0,1,.86-.36h8a1.18,1.18,0,0,1,.85.36,1.2,1.2,0,0,1,.36.86,1.23,1.23,0,0,1-1.21,1.21Z"/><path class="cls-4" d="M70.93,103.21H61.27a1.21,1.21,0,0,1-.86-.35,1.21,1.21,0,0,1,.86-2.07h9.66a1.22,1.22,0,0,1,.86,2.07A1.21,1.21,0,0,1,70.93,103.21Z"/><path class="cls-4" d="M79,116.15H61.27a1.21,1.21,0,0,1-1.21-1.21,1.24,1.24,0,0,1,.35-.86,1.22,1.22,0,0,1,.86-.36H79a1.21,1.21,0,0,1,1.21,1.22,1.17,1.17,0,0,1-.35.85,1.2,1.2,0,0,1-.86.36Z"/><path class="cls-4" d="M85.43,122.61H77.37a1.19,1.19,0,0,1-.85-.35,1.21,1.21,0,0,1-.35-.86,1.17,1.17,0,0,1,.35-.85,1.2,1.2,0,0,1,.85-.36h8.06a1.23,1.23,0,0,1,1.21,1.21,1.22,1.22,0,0,1-.36.86A1.17,1.17,0,0,1,85.43,122.61Z"/><path class="cls-4" d="M70.93,122.61H61.27a1.21,1.21,0,0,1-.86-.35,1.25,1.25,0,0,1-.35-.86,1.21,1.21,0,0,1,1.21-1.21h9.66a1.21,1.21,0,0,1,1.21,1.21,1.25,1.25,0,0,1-.35.86A1.21,1.21,0,0,1,70.93,122.61Z"/><path class="cls-4" d="M128.92,41.76h-6.45a1.19,1.19,0,0,1-.85-.35,1.21,1.21,0,0,1,.85-2.07h6.45a1.23,1.23,0,0,1,.85.35,1.23,1.23,0,0,1,0,1.72,1.19,1.19,0,0,1-.85.35Z"/><path class="cls-4" d="M125.69,45a1.25,1.25,0,0,1-.46-.09,1.16,1.16,0,0,1-.39-.26,1.18,1.18,0,0,1-.27-.4,1.26,1.26,0,0,1-.08-.47V37.32a1.21,1.21,0,0,1,.35-.86,1.2,1.2,0,0,1,.85-.36,1.21,1.21,0,0,1,1.21,1.22v6.46a1.19,1.19,0,0,1-.35.86A1.22,1.22,0,0,1,125.69,45Z"/><path class="cls-4" d="M138.58,56.31h-6.44a1.21,1.21,0,0,1-.86-.35,1.21,1.21,0,0,1,.86-2.07h6.44a1.21,1.21,0,0,1,.85,2.07,1.17,1.17,0,0,1-.85.35Z"/><path class="cls-4" d="M135.36,59.55a1.2,1.2,0,0,1-.86-.35,1.31,1.31,0,0,1-.26-.4,1.27,1.27,0,0,1-.09-.47V51.87a1.22,1.22,0,0,1,.36-.86,1.18,1.18,0,0,1,1.7,0,1.22,1.22,0,0,1,.36.86v6.46a1.2,1.2,0,0,1-.36.86A1.18,1.18,0,0,1,135.36,59.55Z"/><path class="cls-4" d="M132.14,125.85h-6.45a1.2,1.2,0,0,1-.85-.36,1.17,1.17,0,0,1-.35-.85,1.21,1.21,0,0,1,.35-.86,1.2,1.2,0,0,1,.85-.36h6.45a1.2,1.2,0,0,1,.85.36,1.22,1.22,0,0,1,.36.86,1.18,1.18,0,0,1-.36.85,1.2,1.2,0,0,1-.85.36Z"/><path class="cls-4" d="M128.92,129.08a1.2,1.2,0,0,1-1.21-1.21V121.4a1.17,1.17,0,0,1,.35-.85,1.22,1.22,0,0,1,.86-.36,1.2,1.2,0,0,1,.85.36,1.17,1.17,0,0,1,.35.85v6.47a1.21,1.21,0,0,1-.35.85,1.2,1.2,0,0,1-.85.36Z"/></svg>