<svg id="Layer_1" data-name="Layer 1" xmlns="http://www.w3.org/2000/svg" viewBox="0 0 170.9 174"><defs><style>.cls-1{fill:#fff;}.cls-2{fill:#e8ebec;}.cls-3{fill:#bdc3d8;}.cls-4{fill:#0f615d;}</style></defs><path class="cls-1" d="M0,20A20,20,0,0,1,20,0H150.9a20,20,0,0,1,20,20V154a20,20,0,0,1-20,20H20A20,20,0,0,1,0,154Z"/><path class="cls-2" d="M120.76,99.9a23.13,23.13,0,1,0-23.1-23.13A23.12,23.12,0,0,0,120.76,99.9Z"/><path class="cls-2" d="M55.39,147.18A19.82,19.82,0,1,0,35.6,127.36,19.8,19.8,0,0,0,55.39,147.18Z"/><path class="cls-2" d="M60,92.07A33,33,0,1,0,27,59,33,33,0,0,0,60,92.07Z"/><path class="cls-1" d="M81.79,71.62h-9.9A23.11,23.11,0,0,0,95,94.74h9.9a23.11,23.11,0,0,0-23.1-23.12Z"/><path class="cls-3" d="M104.89,94.74H95a23.11,23.11,0,0,1-23.1-23.12h0C91.49,78.69,104.89,94.74,104.89,94.74Z"/><path class="cls-4" d="M104.89,96H95a24.36,24.36,0,0,1-24.3-24.36,1.32,1.32,0,0,1,.09-.48,1.2,1.2,0,0,1,.26-.4,1.22,1.22,0,0,1,.41-.27,1.27,1.27,0,0,1,.47-.09h9.9a24.36,24.36,0,0,1,24.34,24.36,1.29,1.29,0,0,1-.1.48,1.42,1.42,0,0,1-.28.41,1.36,1.36,0,0,1-.41.26,1.32,1.32,0,0,1-.48.09ZM73.16,72.86A21.89,21.89,0,0,0,95,93.5h8.69A21.91,21.91,0,0,0,81.86,72.86Z"/><path class="cls-4" d="M104.89,96a1.24,1.24,0,0,1-.53-.12,1.34,1.34,0,0,1-.43-.32,89.3,89.3,0,0,0-20.8-17.2,1.23,1.23,0,0,1-.54-.74,1.25,1.25,0,0,1,.11-.91,1.25,1.25,0,0,1,1.65-.45A90,90,0,0,1,105.8,94a1.26,1.26,0,0,1,.17,1.31,1.27,1.27,0,0,1-1.11.72Z"/><path class="cls-1" d="M128,81.53h9.89a23.1,23.1,0,0,1-23.09,23.12h-9.9A23.1,23.1,0,0,1,128,81.53Z"/><path class="cls-3" d="M104.89,104.65h9.9a23.1,23.1,0,0,0,23.09-23.12h0C118.29,88.6,104.89,104.65,104.89,104.65Z"/><path class="cls-4" d="M114.79,105.89h-9.9a1.23,1.23,0,0,1-.87-.36,1.28,1.28,0,0,1-.37-.88A24.36,24.36,0,0,1,128,80.29h9.89a1.25,1.25,0,0,1,.88.36,1.27,1.27,0,0,1,.36.88,24.36,24.36,0,0,1-24.33,24.36Zm-8.63-2.47h8.63a21.91,21.91,0,0,0,21.89-20.65h-8.63a21.89,21.89,0,0,0-21.89,20.65Z"/><path class="cls-4" d="M104.89,105.89a1.2,1.2,0,0,1-.79-.29,1.24,1.24,0,0,1-.44-.84,1.22,1.22,0,0,1,.27-.9,90.35,90.35,0,0,1,21.45-17.75,1.1,1.1,0,0,1,.46-.16,1,1,0,0,1,.48,0,1.19,1.19,0,0,1,.44.21,1.22,1.22,0,0,1,.32.36,1.48,1.48,0,0,1,.16.46,1.29,1.29,0,0,1,0,.48,1.38,1.38,0,0,1-.21.44,1.26,1.26,0,0,1-.37.32,88.54,88.54,0,0,0-20.78,17.15,1.61,1.61,0,0,1-.43.35,1.44,1.44,0,0,1-.53.14Z"/><path class="cls-1" d="M88.39,106.31h9.9a23.11,23.11,0,0,1-23.1,23.12h-9.9a23.11,23.11,0,0,1,23.1-23.12Z"/><path class="cls-3" d="M65.29,129.43h9.9a23.11,23.11,0,0,0,23.1-23.12C78.67,113.38,65.29,129.43,65.29,129.43Z"/><path class="cls-4" d="M75.19,130.67h-9.9a1.19,1.19,0,0,1-.87-.37,1.23,1.23,0,0,1-.36-.87,24.36,24.36,0,0,1,24.33-24.36h9.9a1.25,1.25,0,0,1,1.24,1.24,24.39,24.39,0,0,1-24.34,24.36Zm-8.63-2.48h8.63a21.89,21.89,0,0,0,21.89-20.65H88.46a21.89,21.89,0,0,0-21.9,20.65Z"/><path class="cls-4" d="M65.29,130.67a1.21,1.21,0,0,1-.79-.3,1.24,1.24,0,0,1-.44-.83,1.22,1.22,0,0,1,.28-.9A89.83,89.83,0,0,1,85.78,110.9a1.23,1.23,0,0,1,.92-.12,1.19,1.19,0,0,1,.73.55,1.21,1.21,0,0,1,.12.91A1.24,1.24,0,0,1,87,113a89.56,89.56,0,0,0-20.77,17.19,1.29,1.29,0,0,1-.41.36A1.34,1.34,0,0,1,65.29,130.67Z"/><path class="cls-1" d="M42.18,96.4h-9.9a23.1,23.1,0,0,0,23.1,23.12h9.9A23.11,23.11,0,0,0,42.18,96.4Z"/><path class="cls-3" d="M65.28,119.52h-9.9A23.1,23.1,0,0,1,32.28,96.4h0C51.9,103.46,65.28,119.52,65.28,119.52Z"/><path class="cls-4" d="M65.28,120.76h-9.9A24.38,24.38,0,0,1,31.09,96.4a1.25,1.25,0,0,1,.36-.88,1.27,1.27,0,0,1,.88-.36h9.9a24.36,24.36,0,0,1,24.33,24.36,1.12,1.12,0,0,1-.1.48,1.07,1.07,0,0,1-.28.41,1.17,1.17,0,0,1-.42.27A1.31,1.31,0,0,1,65.28,120.76ZM33.57,97.63a21.89,21.89,0,0,0,21.81,20.65h8.71A21.91,21.91,0,0,0,42.26,97.63Z"/><path class="cls-4" d="M65.29,120.76a1.24,1.24,0,0,1-.53-.12,1.12,1.12,0,0,1-.42-.33,89.52,89.52,0,0,0-20.81-17.19,1.25,1.25,0,0,1-.43-1.65,1.24,1.24,0,0,1,.74-.55,1.21,1.21,0,0,1,.91.12A89.44,89.44,0,0,1,66.2,118.78a1.21,1.21,0,0,1,.28.89,1.23,1.23,0,0,1-.43.84,1.28,1.28,0,0,1-.76.25Z"/><path class="cls-4" d="M80.14,138.93h-33a1.21,1.21,0,0,1-.87-.37,1.23,1.23,0,0,1-.36-.87,1.23,1.23,0,0,1,1.23-1.24h33a1.27,1.27,0,0,1,.88.36,1.25,1.25,0,0,1,.36.88,1.25,1.25,0,0,1-1.24,1.24Z"/><path class="cls-4" d="M111.5,138.93H86.76a1.25,1.25,0,0,1-1.24-1.24,1.23,1.23,0,0,1,1.24-1.24H111.5a1.23,1.23,0,0,1,1.24,1.24,1.25,1.25,0,0,1-1.24,1.24Z"/><path class="cls-4" d="M123.05,138.93h-5a1.21,1.21,0,0,1-.87-.37,1.23,1.23,0,0,1-.36-.87,1.23,1.23,0,0,1,1.23-1.24h5a1.23,1.23,0,0,1,1.24,1.24,1.25,1.25,0,0,1-1.24,1.24Z"/><path class="cls-1" d="M104.89,68.32A18.17,18.17,0,1,0,86.74,50.15,18.17,18.17,0,0,0,104.89,68.32Z"/><path class="cls-3" d="M123,50.15a17.87,17.87,0,0,0-1.18-6.39A18.13,18.13,0,0,0,98.52,67.19,18.16,18.16,0,0,0,123,50.2Z"/><path class="cls-4" d="M104.89,69.56a19.43,19.43,0,1,1,13.7-5.7,19.31,19.31,0,0,1-13.7,5.7Zm0-36.34a16.93,16.93,0,1,0,16.94,16.93,16.91,16.91,0,0,0-16.94-16.93Z"/><path class="cls-4" d="M116.24,51.67a1.52,1.52,0,1,0-1.52-1.52A1.52,1.52,0,0,0,116.24,51.67Z"/><path class="cls-4" d="M93.54,51.67A1.52,1.52,0,1,0,92,50.15,1.52,1.52,0,0,0,93.54,51.67Z"/><path class="cls-4" d="M104.9,61a6.52,6.52,0,0,1-6.07-3.85,1.29,1.29,0,0,1-.1-.48,1.1,1.1,0,0,1,.08-.48,1.51,1.51,0,0,1,.27-.42,1.39,1.39,0,0,1,.41-.27,1.29,1.29,0,0,1,1,0,1.42,1.42,0,0,1,.41.28,1.13,1.13,0,0,1,.27.41,4.07,4.07,0,0,0,3.8,2.33,3.83,3.83,0,0,0,4-3.57c0-1.65-.69-3.57-4.06-3.57-4.82,0-6.52-3.12-6.52-6a6.32,6.32,0,0,1,6.52-6.05A6.49,6.49,0,0,1,111,43.11a1.19,1.19,0,0,1,.13.49,1.15,1.15,0,0,1-.08.49,1.18,1.18,0,0,1-.26.43,1.37,1.37,0,0,1-.42.29,1.33,1.33,0,0,1-.49.09,1.21,1.21,0,0,1-.49-.11,1.14,1.14,0,0,1-.41-.29,1.16,1.16,0,0,1-.25-.43,4,4,0,0,0-1.56-1.73,4.1,4.1,0,0,0-2.24-.6,3.79,3.79,0,0,0-2.75.95,3.84,3.84,0,0,0-1.29,2.62c0,1.65.69,3.57,4,3.57,4.82,0,6.6,3.12,6.6,6a6.26,6.26,0,0,1-2,4.43A6.34,6.34,0,0,1,104.9,61Z"/><path class="cls-4" d="M104.89,41.77a1.27,1.27,0,0,1-.88-.36,1.25,1.25,0,0,1-.36-.88V37.89a1.25,1.25,0,0,1,1.24-1.24,1.26,1.26,0,0,1,1.24,1.24v2.64a1.32,1.32,0,0,1-.37.88,1.24,1.24,0,0,1-.87.36Z"/><path class="cls-4" d="M104.89,63.64a1.25,1.25,0,0,1-.84-.35,1.32,1.32,0,0,1-.37-.84V59.81a1.25,1.25,0,0,1,1.24-1.24,1.23,1.23,0,0,1,1.24,1.24v2.64a1.24,1.24,0,0,1-.4.85,1.18,1.18,0,0,1-.87.34Z"/><path class="cls-1" d="M65.29,93.09A18.17,18.17,0,1,0,47.14,74.92,18.15,18.15,0,0,0,65.29,93.09Z"/><path class="cls-3" d="M83.44,74.92a18.35,18.35,0,0,0-1.17-6.39A18.17,18.17,0,0,0,58.91,91.92a18.16,18.16,0,0,0,24.53-17Z"/><path class="cls-4" d="M65.29,94.33A19.41,19.41,0,1,1,79,88.64a19.4,19.4,0,0,1-13.71,5.69Zm0-36.34A16.94,16.94,0,1,0,82.24,74.92a17.15,17.15,0,0,0-1.3-6.48A17,17,0,0,0,65.29,58Z"/><path class="cls-4" d="M78.14,74.92a1.51,1.51,0,0,1-.25.85,1.58,1.58,0,0,1-.69.56,1.55,1.55,0,0,1-.88.08,1.47,1.47,0,0,1-.77-.42,1.44,1.44,0,0,1-.41-.78,1.47,1.47,0,0,1,.09-.88,1.51,1.51,0,0,1,.57-.68,1.56,1.56,0,0,1,.84-.25,1.6,1.6,0,0,1,1.07.45A1.53,1.53,0,0,1,78.14,74.92Z"/><path class="cls-4" d="M55.46,74.92a1.52,1.52,0,0,1-.26.85,1.5,1.5,0,0,1-1.56.64,1.46,1.46,0,0,1-.78-.42,1.51,1.51,0,0,1-.41-.78,1.56,1.56,0,0,1,.09-.88,1.57,1.57,0,0,1,.57-.68A1.59,1.59,0,0,1,54,73.4a1.52,1.52,0,0,1,1.5,1.52Z"/><path class="cls-4" d="M65.31,85.78a6.72,6.72,0,0,1-3.62-1,6.64,6.64,0,0,1-2.47-2.83,1.23,1.23,0,0,1,0-1,1.39,1.39,0,0,1,.27-.41,1.42,1.42,0,0,1,.41-.28,1.33,1.33,0,0,1,.48-.1,1.28,1.28,0,0,1,.48.09,1,1,0,0,1,.41.27,1.15,1.15,0,0,1,.28.41,4.09,4.09,0,0,0,1.55,1.72,4,4,0,0,0,2.25.6,3.83,3.83,0,0,0,4-3.56c0-1.66-.71-3.57-4.06-3.57-4.82,0-6.6-3.12-6.6-6a6.27,6.27,0,0,1,.58-2.4,6.37,6.37,0,0,1,1.46-2A6.34,6.34,0,0,1,65.31,64a6.45,6.45,0,0,1,6.07,3.85,1.15,1.15,0,0,1,.13.48,1.22,1.22,0,0,1-.08.5,1.45,1.45,0,0,1-.26.43,1.19,1.19,0,0,1-.42.28,1.2,1.2,0,0,1-1,0,1.33,1.33,0,0,1-.41-.29,1.45,1.45,0,0,1-.26-.43,4.06,4.06,0,0,0-1.55-1.73,4.1,4.1,0,0,0-2.24-.6,3.85,3.85,0,0,0-4.06,3.56c0,1.66.71,3.57,4.06,3.57,4.82,0,6.6,3.12,6.6,6a6.31,6.31,0,0,1-2,4.42,6.41,6.41,0,0,1-4.57,1.66Z"/><path class="cls-4" d="M65.29,66.55a1.23,1.23,0,0,1-.87-.36,1.27,1.27,0,0,1-.36-.88V62.67a1.25,1.25,0,0,1,.36-.88,1.23,1.23,0,0,1,.87-.36,1.23,1.23,0,0,1,1.24,1.24v2.64a1.23,1.23,0,0,1-.37.87A1.28,1.28,0,0,1,65.29,66.55Z"/><path class="cls-4" d="M65.29,88.42a1.24,1.24,0,0,1-.83-.36,1.2,1.2,0,0,1-.37-.83V84.59a1.24,1.24,0,1,1,2.47,0v2.64a1.25,1.25,0,0,1-.39.85,1.29,1.29,0,0,1-.88.34Z"/><path class="cls-4" d="M104.89,138.93a1.28,1.28,0,0,1-.87-.37,1.25,1.25,0,0,1-.37-.87V68.32a1.25,1.25,0,0,1,.36-.88,1.27,1.27,0,0,1,.88-.36,1.25,1.25,0,0,1,1.24,1.24v69.37a1.26,1.26,0,0,1-1.24,1.24Z"/><path class="cls-4" d="M65.29,138.93a1.3,1.3,0,0,1-.87-.37,1.24,1.24,0,0,1-.36-.87V93.09a1.23,1.23,0,0,1,.36-.87,1.19,1.19,0,0,1,.87-.37,1.25,1.25,0,0,1,1.24,1.24v44.6a1.25,1.25,0,0,1-1.24,1.24Z"/><path class="cls-1" d="M73.54,48.51a3.3,3.3,0,1,0-3.3-3.3A3.3,3.3,0,0,0,73.54,48.51Z"/><path class="cls-4" d="M73.54,49.75A4.52,4.52,0,0,1,69.35,47a4.64,4.64,0,0,1-.26-2.63A4.54,4.54,0,0,1,75.28,41a4.54,4.54,0,0,1-1.74,8.74Zm0-6.61a2.07,2.07,0,0,0-1.14.35,2.08,2.08,0,0,0-.88,2.12,2,2,0,0,0,1.62,1.62A2.06,2.06,0,0,0,75,43.75a2.15,2.15,0,0,0-1.46-.61Z"/><path class="cls-1" d="M126.34,73.29A3.31,3.31,0,1,0,123,70,3.31,3.31,0,0,0,126.34,73.29Z"/><path class="cls-4" d="M126.35,74.53a4.55,4.55,0,0,1-4.19-2.81,4.53,4.53,0,0,1,3.31-6.19,4.44,4.44,0,0,1,2.62.26,4.5,4.5,0,0,1,2,1.67,4.63,4.63,0,0,1,.76,2.52,4.54,4.54,0,0,1-4.54,4.55Zm0-6.61a2,2,0,0,0-1.14.35,2.06,2.06,0,0,0-.32,3.17A2.08,2.08,0,0,0,126,72a2.08,2.08,0,0,0,2.12-.88,2.12,2.12,0,0,0,.34-1.15,2.09,2.09,0,0,0-.6-1.45,2.06,2.06,0,0,0-1.46-.61Z"/><path class="cls-1" d="M118.09,119.55a3.31,3.31,0,1,0-3.3-3.3A3.3,3.3,0,0,0,118.09,119.55Z"/><path class="cls-4" d="M118.1,120.79a4.52,4.52,0,0,1-4.19-2.8,4.64,4.64,0,0,1-.26-2.63,4.54,4.54,0,0,1,6.19-3.31,4.52,4.52,0,0,1,2.8,4.2,4.54,4.54,0,0,1-4.54,4.54Zm0-6.61a2.1,2.1,0,0,0-1.14.35,2.08,2.08,0,0,0-.88,2.12,2.14,2.14,0,0,0,.56,1.06,2.07,2.07,0,0,0,1.06.56,2.05,2.05,0,0,0,2.12-.87,2.13,2.13,0,0,0,.35-1.15,2.08,2.08,0,0,0-2.07-2.07Z"/><path class="cls-1" d="M131.29,129.46a3.3,3.3,0,1,0-3.3-3.3A3.3,3.3,0,0,0,131.29,129.46Z"/><path class="cls-4" d="M131.3,130.7A4.54,4.54,0,1,1,133,122a4.54,4.54,0,0,1-1.74,8.74Zm0-6.61a2.07,2.07,0,0,0-1.14.35,2.08,2.08,0,0,0-.88,2.12,2,2,0,0,0,1.62,1.62,2,2,0,0,0,2.46-2,2.07,2.07,0,0,0-2.06-2.07Z"/><path class="cls-1" d="M53.74,41.91a3.31,3.31,0,1,0-3.3-3.31A3.3,3.3,0,0,0,53.74,41.91Z"/><path class="cls-4" d="M53.74,43.14a4.55,4.55,0,0,1-2.52-.76,4.54,4.54,0,0,1-.68-7,4.5,4.5,0,0,1,2.32-1.24,4.44,4.44,0,0,1,2.62.26,4.5,4.5,0,0,1,2,1.67,4.6,4.6,0,0,1,.76,2.52,4.54,4.54,0,0,1-4.54,4.54Zm0-6.6a2,2,0,0,0-1.14.35,2,2,0,0,0-.76.92,2,2,0,0,0,.45,2.25,2,2,0,0,0,2.24.45,2.1,2.1,0,0,0,.93-.76,2.06,2.06,0,0,0-.26-2.61,2.07,2.07,0,0,0-1.46-.6Z"/><path class="cls-1" d="M40.54,60.07a3.3,3.3,0,1,0-3.29-3.3A3.29,3.29,0,0,0,40.54,60.07Z"/><path class="cls-4" d="M40.55,61.31A4.55,4.55,0,0,1,38,60.55a4.63,4.63,0,0,1-1.67-2,4.54,4.54,0,0,1-.25-2.63,4.53,4.53,0,0,1,3.56-3.56,4.52,4.52,0,0,1,2.62.25,4.59,4.59,0,0,1,2,1.68,4.54,4.54,0,0,1-3.77,7.06Zm0-6.6a2.12,2.12,0,0,0-1.15.34,2.1,2.1,0,0,0-.76.93,2,2,0,0,0-.12,1.19,2.08,2.08,0,0,0,.57,1.06,2.05,2.05,0,0,0,1,.57,2.08,2.08,0,0,0,2.12-.88,2,2,0,0,0,.35-1.15A2.1,2.1,0,0,0,42,55.32a2.05,2.05,0,0,0-1.45-.61Z"/><path class="cls-1" d="M47.14,131.11a3.3,3.3,0,1,0-3.3-3.3A3.3,3.3,0,0,0,47.14,131.11Z"/><path class="cls-4" d="M47.14,132.35a4.55,4.55,0,0,1-2.52-.76,4.55,4.55,0,0,1-1.93-4.66,4.51,4.51,0,0,1,1.25-2.33,4.43,4.43,0,0,1,2.32-1.24,4.52,4.52,0,0,1,2.62.25,4.59,4.59,0,0,1,2,1.68,4.5,4.5,0,0,1,.76,2.52,4.54,4.54,0,0,1-4.54,4.54Zm0-6.6a2,2,0,0,0-1.9,1.27,2,2,0,0,0-.12,1.19,2.08,2.08,0,0,0,.57,1.06,2,2,0,0,0,1.05.57,2.08,2.08,0,0,0,2.12-.88,2.06,2.06,0,0,0-1.72-3.21Z"/></svg>