<?xml version="1.0" encoding="utf-8"?>
<!-- Generator: Adobe Illustrator 25.4.1, SVG Export Plug-In . SVG Version: 6.00 Build 0)  -->
<svg version="1.1" id="Layer_1" xmlns="http://www.w3.org/2000/svg" xmlns:xlink="http://www.w3.org/1999/xlink" x="0px" y="0px"
	 viewBox="0 0 252.7 128.8" style="enable-background:new 0 0 252.7 128.8;" xml:space="preserve">
<style type="text/css">
	.st0{fill:#336666;}
</style>
<path class="st0" d="M111.8,72.9c0.4-2.1,0.8-4.4,1.3-7L102,66.7c-0.8,4.6-1.6,9-2.4,13.3c-0.3,1.9-0.7,3.8-1.1,5.7
	c-0.4,2-0.7,3.9-1.1,5.7c-0.4,1.9-0.7,3.7-1.1,5.4c-0.4,1.7-0.7,3.3-1,4.7c-0.1,0.5-0.3,1.3-0.5,2.2c-0.2,1-0.4,1.9-0.8,2.8
	s-0.8,1.7-1.4,2.4c-0.5,0.7-1.2,1-2,1c-0.6,0-1.1-0.3-1.5-0.8s-0.6-1.2-0.6-1.9c0-1,0.1-2.1,0.3-3.3c0.2-1.2,0.4-2.2,0.6-3
	s0.4-1.8,0.7-3c0.3-1.2,0.6-2.7,1-4.4c0.4-1.7,0.8-3.6,1.2-5.6c0.4-2,0.8-4.1,1.3-6.2c1-4.8,2.1-10.1,3.4-16c-1.5,0.1-3,0.3-4.5,0.4
	c-1.2,0.1-2.5,0.2-4,0.4c-1.4,0.1-2.6,0.3-3.7,0.4c-0.1,0.4-0.3,1.4-0.7,3.1c-0.3,1.7-0.7,3.8-1.2,6.3s-1,5.4-1.6,8.5
	s-1.1,6.2-1.6,9.3c-0.5,3.1-1,6-1.4,8.9c-0.4,2.8-0.8,5.2-1,7.2c0,0.2-0.1,0.4-0.1,0.6s0,0.4,0,0.6c0,1.5,0.3,2.8,0.9,4
	c0.6,1.1,1.4,2,2.3,2.8c0.9,0.7,2,1.3,3.1,1.6c1.2,0.4,2.3,0.5,3.4,0.5c1.9,0,3.8-0.3,5.7-0.9c1.9-0.6,3.7-1.5,5.4-2.8
	c1.7-1.3,3.1-2.9,4.4-4.8c1.2-2,2.2-4.3,2.9-7.1c0.5-2.3,1.1-4.9,1.6-7.7c0.6-2.8,1.1-5.7,1.7-8.6s1.1-5.7,1.6-8.4
	C111,77.4,111.4,75,111.8,72.9z"/>
<path class="st0" d="M115.8,87c-0.4,2.7-0.9,5.5-1.4,8.3c-0.5,2.9-1,5.7-1.5,8.5s-1.1,5.5-1.6,8.1s-1,4.9-1.5,7
	c0.1,0,0.7-0.1,1.8-0.3c1.1-0.1,2.3-0.3,3.7-0.5c1.4-0.2,2.7-0.3,4-0.4s2.2-0.2,2.6-0.2c0.3-2.1,0.7-4.5,1.1-7.2s0.8-5.4,1.3-8.2
	c0.5-2.8,0.9-5.7,1.4-8.6s0.9-5.7,1.4-8.3c1.1-6.3,2.2-12.7,3.3-19.3L119,67.7C117.9,74.4,116.9,80.8,115.8,87z"/>
<path class="st0" d="M149.8,102.4c-0.5,0.8-1,1.6-1.6,2.2c-0.6,0.7-1.2,1.2-1.9,1.6s-1.3,0.6-1.8,0.6c-0.7,0-1.2-0.3-1.6-1
	c-0.4-0.6-0.6-1.7-0.6-3.3c0-1,0.2-2.4,0.6-4c0.4-1.6,0.8-3.4,1.4-5.2c0.6-1.8,1.3-3.6,2-5.4c0.8-1.8,1.6-3.4,2.4-4.8
	c0.8-1.4,1.7-2.6,2.5-3.5c0.9-0.9,1.7-1.4,2.5-1.4s1.5,0.6,2,1.8l9.6-2.6c0-0.3,0.1-0.7,0.1-1s0-0.6,0-0.9c0-1.6-0.2-3-0.7-4.2
	c-0.5-1.3-1.1-2.3-1.9-3.2c-0.8-0.9-1.7-1.6-2.8-2c-1.1-0.5-2.2-0.7-3.4-0.7c-3.8,0-7.3,1.1-10.4,3.3c-3.1,2.2-5.9,5-8.2,8.6
	s-4.1,7.6-5.3,12c-1.3,4.5-1.9,9-1.9,13.6c0,2.7,0.3,5,0.8,7c0.6,2,1.3,3.7,2.2,5.1s2,2.4,3.3,3.1c1.2,0.7,2.6,1,4.1,1
	s3.1-0.3,4.7-1c1.6-0.6,3.2-1.6,4.8-3c1.6-1.3,3.1-3,4.5-5s2.7-4.3,3.9-7l-8.3-3.4C150.6,100.8,150.3,101.6,149.8,102.4z"/>
<path class="st0" d="M193.7,81.4c0.9-1.3,1.9-2.7,2.8-4c1-1.4,1.9-2.7,2.8-4c2.1-3,4.4-6,6.7-9.1c-2.4,0.4-4.9,0.7-7.3,1
	c-2.4,0.2-4.9,0.5-7.3,0.7c-0.6,1-1.4,2.3-2.3,3.7c-0.9,1.4-1.9,2.9-2.9,4.5s-1.9,3-2.8,4.4c-0.9,1.4-1.6,2.5-2.1,3.3l-0.4,0.1
	c0.5-2.7,0.9-5.1,1.3-7.2c0.2-0.9,0.4-1.9,0.5-2.8c0.2-0.9,0.3-1.8,0.5-2.5c0.1-0.8,0.3-1.4,0.4-1.9c0.1-0.5,0.2-0.9,0.2-1.1
	c-1.5,0-2.9,0-4.4-0.1c-1.2-0.1-2.5-0.2-4-0.3c-1.4-0.1-2.7-0.2-3.8-0.3c-0.2,2.2-0.5,4.7-0.8,7.5c-0.4,2.8-0.8,5.6-1.2,8.5
	s-1,5.9-1.5,8.9s-1,5.9-1.5,8.6c-1.3,6.4-2.6,13.1-4.1,19.9l11.9-1.8c0.5-2.5,1-4.9,1.4-7.2c0.4-2,0.8-4.1,1.2-6.2s0.8-4,1.1-5.4
	l1.3-1.5c0.4,3.2,0.9,6.5,1.4,10s1,6.8,1.4,10c1.4,0,2.8-0.1,4.1-0.1s2.7,0,4.1,0c1.1,0,2.3,0,3.4,0c1.2,0,2.3,0.1,3.4,0.1
	c-1.5-4.8-3-9.5-4.5-14.1s-2.7-9.3-3.8-14.3c0.6-1,1.4-2.1,2.2-3.4C191.9,84,192.8,82.7,193.7,81.4z"/>
<path class="st0" d="M205.7,87c-0.4,2.7-0.9,5.5-1.4,8.3c-0.5,2.9-1,5.7-1.5,8.5s-1.1,5.5-1.6,8.1s-1,4.9-1.5,7
	c0.1,0,0.7-0.1,1.8-0.3c1.1-0.1,2.3-0.3,3.7-0.5s2.7-0.3,4-0.4s2.2-0.2,2.6-0.2c0.3-2.1,0.7-4.5,1.1-7.2c0.4-2.7,0.8-5.4,1.3-8.2
	c0.5-2.8,0.9-5.7,1.4-8.6s0.9-5.7,1.4-8.3c1.1-6.3,2.2-12.7,3.3-19.3l-11.4,1.8C207.8,74.4,206.8,80.8,205.7,87z"/>
<path class="st0" d="M246.9,66.3c-2,0.2-4.1,0.3-6.4,0.4c-2.3,0.1-4.7,0.2-7.2,0.2c-1.3,0-2.5,0-3.8-0.1c-1.3,0-2.5-0.1-3.8-0.2
	c-0.1,1.3-0.1,2.5-0.1,3.6c0,1-0.1,2-0.1,3.1s0,1.9-0.1,2.7c1.1,0.3,2.3,0.5,3.4,0.4c1.1,0,2.3,0,3.4,0.1c-0.2,1.8-0.5,3.8-0.8,6
	s-0.7,4.4-1.1,6.7c-0.4,2.3-0.8,4.7-1.3,7.1c-0.4,2.4-0.9,4.7-1.3,6.9c-1,5.2-2.1,10.5-3.2,15.9l13.2-2.1c0.7-5.2,1.4-10.2,2.2-15
	c0.3-2,0.7-4.2,1-6.4c0.3-2.2,0.7-4.5,1.1-6.6c0.4-2.2,0.7-4.3,1.1-6.3c0.4-2,0.8-3.9,1.1-5.5c1.1-0.2,2.2-0.4,3.3-0.5
	s2.2-0.3,3.3-0.6c0.2-0.8,0.4-1.8,0.6-3c0.2-1.2,0.4-2.3,0.7-3.4l0.8-4C250.8,65.9,248.9,66.1,246.9,66.3z"/>
<path class="st0" d="M81.7,62.7c2.6-8.9,3.9-18.6,3.9-29.2c0-4-0.4-8-1.1-12c-0.8-4-2-7.6-3.8-10.8C78.9,7.6,76.4,5,73.2,3
	C70,1,66,0,61.2,0c-5.6,0-11,1.3-16.2,4s-10,6.3-14.6,10.9c-4.5,4.6-8.7,9.8-12.5,15.8c-3.8,5.9-7,12.2-9.5,18.8
	c-2.6,6.6-4.6,13.2-6.1,19.9S0,82.5,0,88.5c0,5.8,0.6,10.8,1.9,15c1.2,4.2,2.9,7.6,5.1,10.2s4.7,4.6,7.6,6c2.9,1.3,6.1,2,9.7,2
	c4.6,0,9.5-1.1,14.5-3.3c5-2.2,10.6-7.5,15.5-11.7c0,0,11.5,19.1,13.7,22.1c1.6-1.9,4.2-7.6,6.6-10.7l-12.8-17.6
	C68,91.1,75.9,82.1,81.7,62.7z M19.2,66.9c-0.7,3.3-2,8.1-1.3,11.5c-2.1-9.6,0.2-23.7,6.9-36.9C34.5,22.2,49.7,12,58.7,18.6
	c4.3,3.2,6.4,9.7,6.4,17.6c-1.2-5.4-5.2-11.7-11.4-11.9c-6.4-0.2-13.1,4.5-17.4,8.9c-4.4,4.6-8.1,10.1-11,15.9
	C22.6,54.8,20.5,60.9,19.2,66.9z M53.6,85.9c0,0-0.7-1.2-1.5-2.5c0.3-0.2,0.7-0.4,0.9-0.7c0.9-1,0.2-2.7,0-3.9
	c-0.3-1.3-0.6-2.5-1-3.7c-0.5-1.7-1.2-3.3-2-4.8c-2.6-4.8-7.2-8.6-9.1-9.6c-0.4-0.2-0.8,0.2-0.5,0.7l6.1,10.9
	c0.4,0.8,0.3,1.6-0.3,1.9s-1.4,0-1.8-0.8l-6.9-12.3c-0.3-0.5-0.7-0.8-1.1-0.7c-0.7,0-1,0.9-0.5,1.7L43,74.5c0.4,0.6,0.3,1.4-0.2,1.6
	l-0.4,0.2c-0.5,0.3-1.1,0-1.5-0.6l-7-12.4c-0.5-0.8-1.4-1-1.8-0.4c-0.2,0.4-0.2,0.9,0.1,1.4l7,12.5c0.3,0.6,0.2,1.2-0.2,1.4
	l-0.5,0.3c-0.4,0.2-1,0-1.3-0.6L31,67.1c-0.2-0.4-0.8-0.4-0.8,0.1c0,2,0.9,7.7,3.5,12.1c0.9,1.6,1.8,3.2,3,4.6c0.8,1,1.7,2,2.7,2.9
	c0.8,0.7,2.3,2.2,3.4,2.3c0.8,0.1,1.4-0.6,2-1c0.1,0,0.1-0.1,0.2-0.1l1.8,2.6c-2.9,4.2-8.6,5.5-13.4,4.6c-4.7-0.9-7.2-3.8-8.3-7.3
	c-1.6-5.3-0.4-12.3,0.6-17.3c1.6-8.5,4.6-17.2,9.5-24.4c2.5-3.6,5.5-6.9,9.3-9.2c3.7-2.2,9.9-4.4,14-2.2c3.4,1.8,4.5,6.3,5,9.9
	c0.9,7.4-1,15.5-2.9,22.6C60.1,69,55.2,86.7,53.6,85.9z"/>
</svg>
