<svg id="Layer_1" data-name="Layer 1" xmlns="http://www.w3.org/2000/svg" width="252.7" height="128.8" viewBox="0 0 252.7 128.8"><defs><style>.cls-1{fill:#fff;}</style></defs><path class="cls-1" d="M111.8,72.9c.4-2.1.8-4.4,1.3-7l-11.1.8c-.8,4.6-1.6,9-2.4,13.3-.3,1.9-.7,3.8-1.1,5.7s-.7,3.9-1.1,5.7-.7,3.7-1.1,5.4-.7,3.3-1,4.7c-.1.5-.3,1.3-.5,2.2a12.9,12.9,0,0,1-.8,2.8,9.46,9.46,0,0,1-1.4,2.4,2.33,2.33,0,0,1-2,1,1.9,1.9,0,0,1-1.5-.8,3.08,3.08,0,0,1-.6-1.9,20.2,20.2,0,0,1,.3-3.3q.3-1.8.6-3c.2-.8.4-1.8.7-3s.6-2.7,1-4.4.8-3.6,1.2-5.6.8-4.1,1.3-6.2c1-4.8,2.1-10.1,3.4-16-1.5.1-3,.3-4.5.4-1.2.1-2.5.2-4,.4s-2.6.3-3.7.4c-.1.4-.3,1.4-.7,3.1s-.7,3.8-1.2,6.3-1,5.4-1.6,8.5-1.1,6.2-1.6,9.3-1,6-1.4,8.9-.8,5.2-1,7.2c0,.2-.1.4-.1.6v.6a8.72,8.72,0,0,0,.9,4,10.44,10.44,0,0,0,2.3,2.8,9.16,9.16,0,0,0,3.1,1.6,10.39,10.39,0,0,0,3.4.5,18.84,18.84,0,0,0,5.7-.9,17.41,17.41,0,0,0,5.4-2.8,20.31,20.31,0,0,0,4.4-4.8,25.69,25.69,0,0,0,2.9-7.1c.5-2.3,1.1-4.9,1.6-7.7s1.1-5.7,1.7-8.6,1.1-5.7,1.6-8.4A62.82,62.82,0,0,0,111.8,72.9Z"/><path class="cls-1" d="M115.8,87c-.4,2.7-.9,5.5-1.4,8.3s-1,5.7-1.5,8.5-1.1,5.5-1.6,8.1-1,4.9-1.5,7q.15,0,1.8-.3c1.1-.1,2.3-.3,3.7-.5s2.7-.3,4-.4,2.2-.2,2.6-.2c.3-2.1.7-4.5,1.1-7.2s.8-5.4,1.3-8.2.9-5.7,1.4-8.6.9-5.7,1.4-8.3c1.1-6.3,2.2-12.7,3.3-19.3L119,67.7C117.9,74.4,116.9,80.8,115.8,87Z"/><path class="cls-1" d="M149.8,102.4a12.45,12.45,0,0,1-1.6,2.2,7,7,0,0,1-1.9,1.6,3.8,3.8,0,0,1-1.8.6,1.72,1.72,0,0,1-1.6-1,6.39,6.39,0,0,1-.6-3.3,17.59,17.59,0,0,1,.6-4c.4-1.6.8-3.4,1.4-5.2s1.3-3.6,2-5.4a53.57,53.57,0,0,1,2.4-4.8,21.17,21.17,0,0,1,2.5-3.5,3.79,3.79,0,0,1,2.5-1.4c.8,0,1.5.6,2,1.8l9.6-2.6c0-.3.1-.7.1-1v-.9a10.88,10.88,0,0,0-.7-4.2,10.06,10.06,0,0,0-1.9-3.2,6.9,6.9,0,0,0-2.8-2,8,8,0,0,0-3.4-.7,17.62,17.62,0,0,0-10.4,3.3,30.73,30.73,0,0,0-8.2,8.6,43.39,43.39,0,0,0-5.3,12,48.54,48.54,0,0,0-1.9,13.6,28.69,28.69,0,0,0,.8,7,20.07,20.07,0,0,0,2.2,5.1,8.85,8.85,0,0,0,3.3,3.1,8,8,0,0,0,4.1,1,11.7,11.7,0,0,0,4.7-1,15.82,15.82,0,0,0,4.8-3,24.52,24.52,0,0,0,4.5-5,41.53,41.53,0,0,0,3.9-7l-8.3-3.4A7.23,7.23,0,0,1,149.8,102.4Z"/><path class="cls-1" d="M193.7,81.4c.9-1.3,1.9-2.7,2.8-4s1.9-2.7,2.8-4c2.1-3,4.4-6,6.7-9.1-2.4.4-4.9.7-7.3,1s-4.9.5-7.3.7c-.6,1-1.4,2.3-2.3,3.7s-1.9,2.9-2.9,4.5-1.9,3-2.8,4.4-1.6,2.5-2.1,3.3l-.4.1c.5-2.7.9-5.1,1.3-7.2a27.41,27.41,0,0,0,.5-2.8c.2-.9.3-1.8.5-2.5s.3-1.4.4-1.9a8.92,8.92,0,0,0,.2-1.1c-1.5,0-2.9,0-4.4-.1-1.2-.1-2.5-.2-4-.3s-2.7-.2-3.8-.3c-.2,2.2-.5,4.7-.8,7.5s-.8,5.6-1.2,8.5-1,5.9-1.5,8.9-1,5.9-1.5,8.6c-1.3,6.4-2.6,13.1-4.1,19.9l11.9-1.8c.5-2.5,1-4.9,1.4-7.2.4-2,.8-4.1,1.2-6.2s.8-4,1.1-5.4l1.3-1.5c.4,3.2.9,6.5,1.4,10s1,6.8,1.4,10c1.4,0,2.8-.1,4.1-.1h7.5c1.2,0,2.3.1,3.4.1q-2.25-7.2-4.5-14.1c-1.5-4.6-2.7-9.3-3.8-14.3.6-1,1.4-2.1,2.2-3.4S192.8,82.7,193.7,81.4Z"/><path class="cls-1" d="M205.7,87c-.4,2.7-.9,5.5-1.4,8.3s-1,5.7-1.5,8.5-1.1,5.5-1.6,8.1-1,4.9-1.5,7q.15,0,1.8-.3c1.1-.1,2.3-.3,3.7-.5s2.7-.3,4-.4,2.2-.2,2.6-.2c.3-2.1.7-4.5,1.1-7.2s.8-5.4,1.3-8.2.9-5.7,1.4-8.6.9-5.7,1.4-8.3c1.1-6.3,2.2-12.7,3.3-19.3l-11.4,1.8C207.8,74.4,206.8,80.8,205.7,87Z"/><path class="cls-1" d="M246.9,66.3c-2,.2-4.1.3-6.4.4s-4.7.2-7.2.2c-1.3,0-2.5,0-3.8-.1s-2.5-.1-3.8-.2c-.1,1.3-.1,2.5-.1,3.6s-.1,2-.1,3.1a21.79,21.79,0,0,1-.1,2.7,9.91,9.91,0,0,0,3.4.4c1.1,0,2.3,0,3.4.1-.2,1.8-.5,3.8-.8,6s-.7,4.4-1.1,6.7-.8,4.7-1.3,7.1-.9,4.7-1.3,6.9c-1,5.2-2.1,10.5-3.2,15.9l13.2-2.1c.7-5.2,1.4-10.2,2.2-15,.3-2,.7-4.2,1-6.4s.7-4.5,1.1-6.6.7-4.3,1.1-6.3.8-3.9,1.1-5.5c1.1-.2,2.2-.4,3.3-.5a19.09,19.09,0,0,0,3.3-.6q.3-1.2.6-3a34,34,0,0,1,.7-3.4l.8-4Z"/><path class="cls-1" d="M81.7,62.7a103.64,103.64,0,0,0,3.9-29.2,69.57,69.57,0,0,0-1.1-12,36.34,36.34,0,0,0-3.8-10.8A22.08,22.08,0,0,0,73.2,3a22.25,22.25,0,0,0-12-3A34.66,34.66,0,0,0,45,4,59.13,59.13,0,0,0,30.4,14.9,95.65,95.65,0,0,0,17.9,30.7,100.48,100.48,0,0,0,8.4,49.5,133.78,133.78,0,0,0,2.3,69.4,87.93,87.93,0,0,0,0,88.5a51.14,51.14,0,0,0,1.9,15A27.12,27.12,0,0,0,7,113.7a23,23,0,0,0,7.6,6,23.36,23.36,0,0,0,9.7,2,36.16,36.16,0,0,0,14.5-3.3c5-2.2,10.6-7.5,15.5-11.7,0,0,11.5,19.1,13.7,22.1,1.6-1.9,4.2-7.6,6.6-10.7L61.8,100.5C68,91.1,75.9,82.1,81.7,62.7ZM19.2,66.9c-.7,3.3-2,8.1-1.3,11.5-2.1-9.6.2-23.7,6.9-36.9C34.5,22.2,49.7,12,58.7,18.6c4.3,3.2,6.4,9.7,6.4,17.6-1.2-5.4-5.2-11.7-11.4-11.9-6.4-.2-13.1,4.5-17.4,8.9a65.38,65.38,0,0,0-11,15.9A83.28,83.28,0,0,0,19.2,66.9Zm34.4,19s-.7-1.2-1.5-2.5a3.11,3.11,0,0,0,.9-.7c.9-1,.2-2.7,0-3.9s-.6-2.5-1-3.7a25.54,25.54,0,0,0-2-4.8,27.18,27.18,0,0,0-9.1-9.6c-.4-.2-.8.2-.5.7l6.1,10.9c.4.8.3,1.6-.3,1.9a1.39,1.39,0,0,1-1.8-.8L37.5,61.1c-.3-.5-.7-.8-1.1-.7-.7,0-1,.9-.5,1.7L43,74.5c.4.6.3,1.4-.2,1.6l-.4.2c-.5.3-1.1,0-1.5-.6l-7-12.4c-.5-.8-1.4-1-1.8-.4a1.42,1.42,0,0,0,.1,1.4l7,12.5c.3.6.2,1.2-.2,1.4l-.5.3a1,1,0,0,1-1.3-.6L31,67.1c-.2-.4-.8-.4-.8.1a28.32,28.32,0,0,0,3.5,12.1,28,28,0,0,0,3,4.6,24.43,24.43,0,0,0,2.7,2.9c.8.7,2.3,2.2,3.4,2.3.8.1,1.4-.6,2-1,.1,0,.1-.1.2-.1l1.8,2.6c-2.9,4.2-8.6,5.5-13.4,4.6a10.18,10.18,0,0,1-8.3-7.3c-1.6-5.3-.4-12.3.6-17.3,1.6-8.5,4.6-17.2,9.5-24.4A31.37,31.37,0,0,1,44.5,37c3.7-2.2,9.9-4.4,14-2.2,3.4,1.8,4.5,6.3,5,9.9.9,7.4-1,15.5-2.9,22.6C60.1,69,55.2,86.7,53.6,85.9Z"/></svg>