<svg id="Layer_1" data-name="Layer 1" xmlns="http://www.w3.org/2000/svg" viewBox="0 0 287.86 60.53"><defs><style>.cls-1{fill:#066;}</style></defs><path class="cls-1" d="M45.66,59.61a48.3,48.3,0,0,1-22.94-6.75c-8.67-4.65-15-12.79-19-21.61C.47,23.61-3.68,9.43,6.08,4.9,14.39,2.68,25.47,18,31.21,23.29c.25.29.73.39.85-.07a28.3,28.3,0,0,1,2.58-5.8A55.37,55.37,0,0,1,50.94,1a6.79,6.79,0,0,1,7-.14c4.73,2.77,4.28,9,.08,12.06-3,2.89-6.47,5.5-9.09,8.7-1.38,2.44,2.23,4.81,4,2.55,2.61-2.7,5.16-5.47,7.67-8.27,1.76-2.18,4.38-4.09,7.32-3.46a6.78,6.78,0,0,1,5.79,6.92c0,4.64-6.73,8.58-9.62,12-1,1.25-2.87,2.19-2.9,4a2.63,2.63,0,0,0,2.45,2.39c1.54-.14,2.37-1.57,3.36-2.58,3.23-3.12,5.65-7.29,9.46-9.72,5.46-2.78,11.77,3.37,9.11,8.93C75.86,46.36,62.07,60,45.66,59.6Zm4.8-30.13h0c-4.34.15-8-4.65-6.46-8.79,1.44-4,6.48-6.8,9.32-10,1.41-1.38,3.77-2.62,2.93-4.94-1.36-2.34-3.32-1.42-5,0-6.54,4.68-12.7,10.78-15.55,18.42-.3,1-1.31,3-.49,3.87C40.17,33,44.93,38,49.87,42.81c2.9,2.93,5.72,5.95,8.71,8.81.7.47,1.67-.7,2.38-.93a71.09,71.09,0,0,0,14.26-11.8c2-1.8,3.62-3.86,5.39-5.83s-1.14-5.15-3.3-3.4c-2.11,2.22-4.12,4.55-6.22,6.79-1.92,2.12-3.63,4.79-6.59,5.44a6.67,6.67,0,0,1-7.29-3.2c-2.37-3.91-.07-7.63,3-10.24,2.29-2.1,4.42-4.36,6.72-6.44,2.57-1.7,2.38-5.74-1.22-5.14a2.38,2.38,0,0,0-1.58,1c-2.29,2.51-4.62,5-6.92,7.49C55.48,27.45,53.34,29.63,50.46,29.48ZM4,18.45H4C5,26.26,8.6,33.54,13.4,39.74c.92,1.18,6.86,7.82,8,7,5-4.45,7.8-11.32,8.51-17.69q-6.34-6.91-13-13.57C14.15,12.89,11.18,9.56,7.31,9,3.48,10.23,3.87,15.19,4,18.45ZM47.69,55.16v.05c.88-.25,8.12-.72,6.18-2.1q-9.72-9.69-19.4-19.43c-1-1-.78-.41-1.1.54-.3.6-.28,1.29-.54,1.9-1.49,4.78-3.79,9.49-7.59,12.9-.29.27.21.78.53.86C32.46,53.31,40,55.68,47.69,55.16Z"/><path class="cls-1" d="M134.28,53.91c1.69,0,3.39-.09,5.08.07.86.05,1.08,1,1.57,1.55,1.1,1.36-.24,3.36-1.8,3.51-8.14.18-16.39,0-24.57.06a17.68,17.68,0,0,1-10.39-3.17c-15.61-9.65-9.12-34.55,9.14-35.6,16.16-1.29,26.16,16.79,17.76,30.05a8.05,8.05,0,0,1-1.9,2.5c-1.35,1.75,4.22.73,5.11,1Zm-19.5-.15c15.29-.46,17.75-22.31,3.77-27.4-14.47-4.05-22.84,15-12.14,24.33C108.86,52.31,111.71,53.94,114.78,53.76Z"/><path class="cls-1" d="M227.76,37.11V20.25a10.18,10.18,0,0,1,.3-3.77c1.07-3,5.75-2.25,5.93.84,0,7.49,0,15,0,22.46.06,2.87,3.54-3.12,4.18-3.61,1.23-1.7,2.54-3.31,3.82-5s2.41-3.89,4.46-4.88c1.43-.72,3.09.56,3.75,1.84s-.32,2.48-.85,3.57c-2.11,2.73-4.22,5.49-6.28,8.26A4,4,0,0,0,242,43.4a5.82,5.82,0,0,0,1.33,2.25c2.23,3.07,4.88,5.86,7,9a2.36,2.36,0,0,1,.09,2.75,3.07,3.07,0,0,1-4.91.79,9,9,0,0,1-1.77-2.12c-2.83-3.66-5.75-7.26-8.63-10.88-.4-.58-1.1-.3-1,.39,0,3.62,0,7.23,0,10.85a3.19,3.19,0,0,1-.85,2c-.84.29-1.68,1.11-2.61.79a3.62,3.62,0,0,1-2.75-3.81c0-6.12,0-12.24,0-18.36Z"/><path class="cls-1" d="M170.39,42.6c0,4.56,0,9.13,0,13.69a2.71,2.71,0,0,1-2.08,2.64,2.82,2.82,0,0,1-3.26-2.13c-.15-.75-1.17-.43-1.39.11s-.79.8-1.2,1.21c-7.43,6-18.74,0-20-8.89a172.48,172.48,0,0,1-.53-17.62c-.33-3.15.67-6.43,4.52-5.39.51.34,1.46.94,1.62,1.56.54,5,.09,10.16.25,15.22-.35,5.86,2.29,13.09,9.35,11.9,9.55-3.28,6-18.06,6.68-25.93A3.12,3.12,0,0,1,169.79,27c.83.68.52,2,.57,3V42.6Z"/><path class="cls-1" d="M208.18,54.87a8.18,8.18,0,0,0,5.46-1.55c2.21-2.18,5-5,7.29-1.27,1.74,5-8.62,8.61-12.42,8.48-17.16-.14-24-22.49-9.35-31.79A16.78,16.78,0,0,1,217,28.55c1.71,1,4.92,3.17,4.34,5.47a3,3,0,0,1-4.14,2.34c-1.81-.94-2.72-3.16-4.76-3.82-5.33-2.53-12.26.43-14.3,5.93C195.2,45.63,200,55,208.18,54.9Z"/><path class="cls-1" d="M276.57,44.43c0-4,0-7.9,0-11.84,0-.94-1-.79-1.67-.76a2.76,2.76,0,0,1-2.8-2.93,2.81,2.81,0,0,1,2.7-2.71c.74,0,1.85.12,1.81-.94,0-2.43,0-4.85-.05-7.28a3.43,3.43,0,0,1,3.74-3.34c1.54.46,2.14,1.59,2.49,3.07a40.86,40.86,0,0,1,.1,4.83c0,.81,0,1.61-.08,2.42s.18,1,.89,1.17a6.26,6.26,0,0,1,2.56.54,3.1,3.1,0,0,1,1.52,2.2,2,2,0,0,1-.35,1.64c-.29.46-.62,1-1.16,1.2a20.17,20.17,0,0,1-2.69.33c-.7,0-.71.82-.74,1.35,0,7.2.05,14.4.05,21.59a6.69,6.69,0,0,1-.75,3A3.39,3.39,0,0,1,280,59.25a3.68,3.68,0,0,1-2.49-1.08,4.15,4.15,0,0,1-.9-3c.05-3.58,0-7.16,0-10.74Z"/><path class="cls-1" d="M184.47,42.59q0,6.15,0,12.3c0,.71.22,1.5-.28,2.12s-.62,1.34-1.32,1.61a3.18,3.18,0,0,1-4-.85,5.05,5.05,0,0,1-.74-2.56c0-8.25,0-16.51,0-24.76-.37-2.29,1.56-5,4-4.24a3.42,3.42,0,0,1,2.32,2.87c.07,4.51,0,9,0,13.51Z"/><path class="cls-1" d="M264.33,43.05q0,5.79,0,11.6c-.08,1.08.15,2.33-.64,3.2a3.53,3.53,0,0,1-2.51,1.33c-2.12-.41-3-1.88-2.91-4,0-8.76-.11-17.51.06-26.26,0-2.32,3.16-3.82,4.84-2.14a2.14,2.14,0,0,1,1.07,2c.16,4.75.09,9.51.1,14.26Z"/><path class="cls-1" d="M181.26,23.12c-5.92,0-5.17-9,.51-8.48C186.94,15.24,186.59,23.3,181.26,23.12Z"/><path class="cls-1" d="M261.52,23.14c-5.55.16-5.71-8.5-.17-8.5C266.56,14.55,266.94,23,261.52,23.14Z"/></svg>