<svg id="Layer_1" data-name="Layer 1" xmlns="http://www.w3.org/2000/svg" viewBox="0 0 266.14 58.29"><defs><style>.cls-1{fill:#fff;}</style></defs><path class="cls-1" d="M42.21,57.4A43.43,43.43,0,0,1,21,50.89C13,46.42,7.16,38.58,3.43,30.09c-3-7.35-6.83-21,2.19-25.37C13.3,2.58,23.55,17.3,28.86,22.43c.23.27.67.37.78-.07A28.05,28.05,0,0,1,32,16.77,52.43,52.43,0,0,1,47.09,1,6.08,6.08,0,0,1,53.53.86c4.37,2.66,3.95,8.7.07,11.61-2.77,2.79-6,5.3-8.41,8.37-1.27,2.36,2.07,4.64,3.7,2.46,2.42-2.6,4.77-5.27,7.09-8C57.61,13.24,60,11.4,62.75,12c3.09.33,5.48,3.48,5.36,6.67,0,4.46-6.23,8.26-8.9,11.56-.94,1.21-2.66,2.11-2.68,3.82a2.48,2.48,0,0,0,2.26,2.3c1.42-.13,2.2-1.51,3.11-2.49,3-3,5.22-7,8.74-9.36,5.06-2.67,10.89,3.25,8.42,8.61C70.14,44.64,57.39,57.73,42.21,57.39Zm4.44-29h0c-4,.15-7.34-4.47-6-8.46,1.33-3.82,6-6.54,8.61-9.59C50.6,9,52.78,7.81,52,5.58c-1.25-2.25-3.06-1.36-4.57,0C41.39,10.1,35.69,16,33.06,23.33c-.29,1-1.22,2.85-.46,3.73,4.54,4.68,8.94,9.49,13.5,14.16,2.69,2.83,5.3,5.73,8.06,8.48.65.46,1.55-.67,2.2-.9A66.29,66.29,0,0,0,69.55,37.44c1.8-1.73,3.35-3.71,5-5.6s-1-5-3-3.29c-2,2.15-3.81,4.39-5.75,6.55-1.78,2-3.36,4.61-6.09,5.24a6.11,6.11,0,0,1-6.75-3.08c-2.18-3.77-.06-7.35,2.8-9.86,2.11-2,4.08-4.2,6.21-6.21,2.37-1.63,2.2-5.52-1.13-4.94a2.14,2.14,0,0,0-1.46,1c-2.12,2.41-4.27,4.8-6.4,7.21C51.29,26.43,49.32,28.53,46.65,28.39ZM3.72,17.77h0a43.54,43.54,0,0,0,8.68,20.49c.85,1.14,6.35,7.54,7.39,6.77,4.6-4.28,7.21-10.9,7.87-17q-5.87-6.66-12-13.06c-2.52-2.53-5.26-5.73-8.84-6.29C3.22,9.85,3.58,14.62,3.72,17.77ZM44.09,53.11v0c.81-.24,7.51-.69,5.72-2-6-6.22-12-12.48-17.94-18.71-.94-.95-.72-.4-1,.52-.28.58-.26,1.24-.5,1.83-1.37,4.6-3.5,9.13-7,12.42-.27.26.19.75.48.82C30,51.33,37,53.61,44.09,53.11Z"/><path class="cls-1" d="M124.15,51.91c1.56,0,3.14-.09,4.69.06.8.05,1,1,1.46,1.5,1,1.31-.22,3.23-1.66,3.37-7.53.18-15.16,0-22.72.06a15.85,15.85,0,0,1-9.61-3c-14.43-9.29-8.43-33.26,8.45-34.28C119.7,18.33,129,35.74,121.18,48.51a7.65,7.65,0,0,1-1.76,2.41c-1.24,1.68,3.9.7,4.73.95Zm-18-.15c14.14-.44,16.41-21.47,3.48-26.38-13.37-3.9-21.11,14.41-11.22,23.43C100.65,50.37,103.28,51.93,106.12,51.76Z"/><path class="cls-1" d="M210.58,35.73V19.5a10.08,10.08,0,0,1,.27-3.63,2.85,2.85,0,0,1,5.49.81q0,10.82,0,21.63c.07,2.75,3.28-3,3.87-3.48,1.14-1.64,2.35-3.19,3.53-4.79s2.23-3.75,4.13-4.7c1.32-.69,2.86.54,3.46,1.78s-.29,2.38-.78,3.44c-2,2.62-3.9,5.27-5.81,8a4,4,0,0,0-1,3.28A5.74,5.74,0,0,0,224.93,44c2.07,2.95,4.52,5.63,6.44,8.69a2.37,2.37,0,0,1,.09,2.65,2.8,2.8,0,0,1-4.55.76,9.07,9.07,0,0,1-1.64-2c-2.6-3.52-5.31-7-8-10.48-.37-.55-1-.28-1,.37,0,3.49,0,7,0,10.45a3.07,3.07,0,0,1-.78,2c-.78.29-1.55,1.07-2.42.77a3.48,3.48,0,0,1-2.54-3.67c0-5.89,0-11.78,0-17.68Z"/><path class="cls-1" d="M157.53,41c0,4.39,0,8.78,0,13.18a2.49,2.49,0,0,1-4.94.49c-.14-.72-1.09-.41-1.29.11s-.73.77-1.1,1.16c-6.87,5.75-17.33,0-18.5-8.56a168.19,168.19,0,0,1-.49-17c-.32-3,.61-6.19,4.17-5.2.47.33,1.35.91,1.5,1.51.5,4.85.08,9.78.23,14.66-.32,5.63,2.12,12.59,8.65,11.45,8.83-3.15,5.5-17.38,6.17-25A2.86,2.86,0,0,1,157,26c.77.65.48,1.94.53,2.86V41Z"/><path class="cls-1" d="M192.47,52.83a7.4,7.4,0,0,0,5.06-1.49c2-2.1,4.63-4.79,6.73-1.22,1.61,4.78-8,8.29-11.48,8.16-15.87-.14-22.23-21.65-8.64-30.6a15,15,0,0,1,16.47-.19c1.58,1,4.55,3.05,4,5.27A2.78,2.78,0,0,1,200.79,35c-1.66-.9-2.51-3-4.39-3.67-4.94-2.45-11.34.4-13.22,5.7-2.7,6.9,1.74,15.92,9.29,15.82Z"/><path class="cls-1" d="M255.71,42.78c0-3.8,0-7.6,0-11.4,0-.91-.94-.76-1.54-.73a2.6,2.6,0,0,1-2.59-2.82,2.65,2.65,0,0,1,2.49-2.61c.69,0,1.72.11,1.68-.91,0-2.33,0-4.67,0-7a3.22,3.22,0,0,1,3.45-3.22c1.42.44,2,1.53,2.3,2.95a37.87,37.87,0,0,1,.09,4.65c0,.78,0,1.56-.07,2.33s.17,1,.82,1.13a5.53,5.53,0,0,1,2.37.52,3,3,0,0,1,1.41,2.11,2,2,0,0,1-.33,1.58c-.26.45-.57,1-1.07,1.16a15.88,15.88,0,0,1-2.48.32c-.65,0-.66.79-.69,1.3,0,6.93,0,13.86.05,20.79a6.62,6.62,0,0,1-.7,2.89,3.14,3.14,0,0,1-2,1.23,3.34,3.34,0,0,1-2.3-1,4.05,4.05,0,0,1-.83-2.89c0-3.45,0-6.9,0-10.34Z"/><path class="cls-1" d="M170.56,41V52.85c0,.69.2,1.45-.25,2s-.58,1.29-1.23,1.55a2.86,2.86,0,0,1-3.73-.82,5,5,0,0,1-.69-2.46c0-7.95,0-15.89,0-23.84-.34-2.21,1.45-4.79,3.69-4.09A3.29,3.29,0,0,1,170.53,28c.06,4.34,0,8.67,0,13Z"/><path class="cls-1" d="M244.38,41.45c0,3.72,0,7.45,0,11.17-.08,1,.14,2.25-.6,3.08A3.18,3.18,0,0,1,241.46,57c-2-.39-2.79-1.81-2.68-3.82,0-8.43-.11-16.86.05-25.29,0-2.23,2.92-3.68,4.48-2.05a2.09,2.09,0,0,1,1,1.9c.15,4.58.08,9.15.09,13.73Z"/><path class="cls-1" d="M167.58,22.26c-5.47,0-4.77-8.63.47-8.17C172.84,14.67,172.51,22.43,167.58,22.26Z"/><path class="cls-1" d="M241.79,22.28c-5.13.16-5.27-8.18-.15-8.18C246.45,14,246.8,22.11,241.79,22.28Z"/></svg>