<svg id="Layer_1" data-name="Layer 1" xmlns="http://www.w3.org/2000/svg" viewBox="0 0 170.9 174"><defs><style>.cls-1{fill:#fff;}.cls-2{fill:#e8ebec;}.cls-3{fill:#bdc3d8;}.cls-4{fill:#0f615d;}</style></defs><path class="cls-1" d="M0,20A20,20,0,0,1,20,0H150.9a20,20,0,0,1,20,20V154a20,20,0,0,1-20,20H20A20,20,0,0,1,0,154Z"/><path class="cls-2" d="M43.54,128.15A22.48,22.48,0,1,0,21,105.67,22.51,22.51,0,0,0,43.54,128.15Z"/><path class="cls-2" d="M89.89,61.52A19.26,19.26,0,1,0,70.57,42.26,19.28,19.28,0,0,0,89.89,61.52Z"/><path class="cls-2" d="M116.8,151a32.1,32.1,0,1,0-32.19-32.1A32.14,32.14,0,0,0,116.8,151Z"/><path class="cls-3" d="M123.1,95.77l-79,8.86a4.81,4.81,0,0,1-1.89-.16,4.74,4.74,0,0,1-1.67-.86,4.83,4.83,0,0,1-1.22-1.44,4.7,4.7,0,0,1-.57-1.79L32.69,46.85A4.71,4.71,0,0,1,32.85,45a4.87,4.87,0,0,1,.86-1.68,5.08,5.08,0,0,1,1.44-1.21,5,5,0,0,1,1.8-.57l79-8.86a4.85,4.85,0,0,1,3.55,1,5,5,0,0,1,1.22,1.44,4.8,4.8,0,0,1,.57,1.8l6,53.52a4.83,4.83,0,0,1-4.25,5.33Z"/><path class="cls-1" d="M117.5,90.19,38.61,99.05l-5.89-52.2A4.71,4.71,0,0,1,32.88,45a4.87,4.87,0,0,1,.86-1.68,5,5,0,0,1,1.45-1.21,4.87,4.87,0,0,1,1.8-.57l77.27-8.67,6,53.79a3.21,3.21,0,0,1-2.8,3.55Z"/><path class="cls-4" d="M43.52,105.87a6.06,6.06,0,0,1-6-5.35L31.5,47A6,6,0,0,1,34.58,41a6.12,6.12,0,0,1,2.24-.71l79-8.87a6,6,0,0,1,6.66,5.31l6.05,53.54A6,6,0,0,1,123.23,97l-79,8.86a5.34,5.34,0,0,1-.69.05Zm73-72h-.42l-79,8.88a3.6,3.6,0,0,0-1.35.42,3.54,3.54,0,0,0-1.09.91A3.66,3.66,0,0,0,34,45.31a3.74,3.74,0,0,0-.12,1.41l6,53.53a3.65,3.65,0,0,0,1.35,2.42,3.56,3.56,0,0,0,1.25.65,3.73,3.73,0,0,0,1.41.11l79-8.86a3.68,3.68,0,0,0,2.43-1.33,3.67,3.67,0,0,0,.77-2.67l-6-53.51a3.61,3.61,0,0,0-3.59-3.21Z"/><path class="cls-3" d="M122.19,44.75,33.58,54.69,35,67.3l88.61-9.94Z"/><path class="cls-1" d="M117.19,54.31l-82.6,9.28-1-8.92,84.22-9.44.82,7.32a1.6,1.6,0,0,1-.35,1.17A1.56,1.56,0,0,1,117.19,54.31Z"/><path class="cls-4" d="M35,68.5a1.15,1.15,0,0,1-.75-.27,1.14,1.14,0,0,1-.31-.35,1.07,1.07,0,0,1-.14-.45L32.35,54.81a1.23,1.23,0,0,1,0-.47,1.41,1.41,0,0,1,.22-.42,1.16,1.16,0,0,1,.36-.3,1.18,1.18,0,0,1,.45-.14L122,43.53a1.2,1.2,0,0,1,.88.26,1.22,1.22,0,0,1,.46.8l1.43,12.63a1.27,1.27,0,0,1-.25.88,1.37,1.37,0,0,1-.81.45L35.12,68.49Zm-.09-12.84L36,65.9l86.2-9.63-1.16-10.22Z"/><path class="cls-3" d="M130.87,72.76H50.38a4.82,4.82,0,0,0-4.83,4.81v53a4.82,4.82,0,0,0,4.83,4.81h80.49a4.82,4.82,0,0,0,4.83-4.81v-53A4.82,4.82,0,0,0,130.87,72.76Z"/><path class="cls-1" d="M50.38,72.76h78.88v53a3.21,3.21,0,0,1-3.22,3.21H45.55V77.57a4.83,4.83,0,0,1,4.83-4.81Z"/><path class="cls-4" d="M130.87,136.57H50.38a6,6,0,0,1-6-6v-53a6,6,0,0,1,6-6h80.49a6,6,0,0,1,4.27,1.77,6,6,0,0,1,1.77,4.25v53a6,6,0,0,1-1.77,4.25,6,6,0,0,1-4.27,1.77ZM50.38,74a3.6,3.6,0,0,0-3.62,3.61v53a3.6,3.6,0,0,0,3.62,3.61h80.49a3.6,3.6,0,0,0,3.62-3.61v-53A3.6,3.6,0,0,0,130.87,74Z"/><path class="cls-3" d="M74.53,84H58.43a1.61,1.61,0,0,0-1.61,1.61v9.63a1.61,1.61,0,0,0,1.61,1.6h16.1a1.61,1.61,0,0,0,1.61-1.6V85.6A1.61,1.61,0,0,0,74.53,84Z"/><path class="cls-1" d="M58.43,84H71.31v6.42A1.6,1.6,0,0,1,69.7,92H56.82V85.6A1.6,1.6,0,0,1,58.43,84Z"/><path class="cls-4" d="M74.53,98.05H58.43a2.84,2.84,0,0,1-2-.82,2.81,2.81,0,0,1-.83-2V85.61a2.83,2.83,0,0,1,2.82-2.81h16.1a2.83,2.83,0,0,1,2.82,2.81v9.63a2.81,2.81,0,0,1-.83,2,2.84,2.84,0,0,1-2,.82ZM58.43,85.21a.4.4,0,0,0-.29.12.41.41,0,0,0-.11.28v9.63a.38.38,0,0,0,.4.4h16.1a.41.41,0,0,0,.28-.11.4.4,0,0,0,.12-.29V85.61a.41.41,0,0,0-.4-.4Z"/><path class="cls-4" d="M66.46,110.89H56.8a1.23,1.23,0,0,1-.85-.35,1.19,1.19,0,0,1-.35-.85,1.17,1.17,0,0,1,.35-.85,1.2,1.2,0,0,1,.85-.36h9.66a1.21,1.21,0,0,1,.86,2.06A1.25,1.25,0,0,1,66.46,110.89Z"/><path class="cls-4" d="M85.78,110.89H76.12a1.21,1.21,0,0,1-.85-.35,1.2,1.2,0,0,1-.36-.85,1.23,1.23,0,0,1,1.21-1.21h9.66A1.23,1.23,0,0,1,87,109.69a1.2,1.2,0,0,1-.36.85,1.21,1.21,0,0,1-.85.35Z"/><path class="cls-4" d="M105.11,110.89H95.46a1.25,1.25,0,0,1-.86-.35,1.23,1.23,0,0,1-.35-.85,1.21,1.21,0,0,1,1.21-1.21h9.65a1.21,1.21,0,0,1,.86,2.06,1.25,1.25,0,0,1-.86.35Z"/><path class="cls-4" d="M124.43,110.89h-9.66a1.23,1.23,0,0,1-.85-.35,1.19,1.19,0,0,1-.35-.85,1.17,1.17,0,0,1,.35-.85,1.2,1.2,0,0,1,.85-.36h9.66a1.21,1.21,0,0,1,.86,2.06,1.25,1.25,0,0,1-.86.35Z"/><path class="cls-1" d="M118,96.83a6.42,6.42,0,1,0-6.43-6.42A6.43,6.43,0,0,0,118,96.83Z"/><path class="cls-3" d="M113.18,94.65h.52a6.43,6.43,0,0,0,6.36-7.37A6.54,6.54,0,0,0,118.53,84a6.57,6.57,0,0,1,3,1,6.41,6.41,0,0,1,2.32,8.31,6.28,6.28,0,0,1-2,2.36,6.38,6.38,0,0,1-2.92,1.13,6.32,6.32,0,0,1-3.1-.37,6.4,6.4,0,0,1-2.56-1.79Z"/><path class="cls-4" d="M118,98.05a7.74,7.74,0,0,1-4.25-1.28,7.63,7.63,0,0,1-2.82-3.43A7.63,7.63,0,0,1,116.49,83a7.66,7.66,0,0,1,7.85,3.24A7.64,7.64,0,0,1,118,98.05Zm0-12.84a5.24,5.24,0,0,0-4.84,3.22,5.25,5.25,0,0,0,1.14,5.69,5.23,5.23,0,0,0,8-.8,5.19,5.19,0,0,0-.66-6.58A5.27,5.27,0,0,0,118,85.21Z"/><path class="cls-1" d="M108.33,96.83a6.42,6.42,0,1,0-6.43-6.42A6.43,6.43,0,0,0,108.33,96.83Z"/><path class="cls-3" d="M103.52,94.65H104a6.43,6.43,0,0,0,6.36-7.37A6.54,6.54,0,0,0,108.87,84a6.57,6.57,0,0,1,3,1,6.44,6.44,0,0,1,3,5.26,6.44,6.44,0,0,1-11.3,4.38Z"/><path class="cls-4" d="M108.32,98.05a7.74,7.74,0,0,1-4.25-1.28,7.61,7.61,0,0,1-3.25-7.83,7.64,7.64,0,0,1,6-6,7.64,7.64,0,0,1,7.85,3.24,7.62,7.62,0,0,1-6.36,11.86Zm0-12.84a5.27,5.27,0,0,0-2.91.88,5.22,5.22,0,0,0-.79,8,5.23,5.23,0,0,0,8-.8,5.22,5.22,0,0,0-4.35-8.11Z"/><path class="cls-4" d="M108.32,122.13H90.61a1.23,1.23,0,0,1-1.21-1.21,1.2,1.2,0,0,1,.36-.85,1.21,1.21,0,0,1,.85-.35h17.71a1.21,1.21,0,0,1,.85.35,1.2,1.2,0,0,1,.36.85,1.23,1.23,0,0,1-1.21,1.21Z"/><path class="cls-4" d="M82.56,122.13H56.8a1.2,1.2,0,0,1-.85-.36,1.17,1.17,0,0,1-.35-.85,1.19,1.19,0,0,1,.35-.85,1.23,1.23,0,0,1,.85-.35H82.56a1.21,1.21,0,0,1,.85.35,1.2,1.2,0,0,1,.36.85,1.23,1.23,0,0,1-1.21,1.21Z"/><path class="cls-4" d="M135.69,53.11h-6.44a1.25,1.25,0,0,1-.86-.35,1.23,1.23,0,0,1-.35-.85,1.21,1.21,0,0,1,1.21-1.21h6.44a1.2,1.2,0,0,1,.85.36,1.17,1.17,0,0,1,.35.85,1.19,1.19,0,0,1-.35.85A1.23,1.23,0,0,1,135.69,53.11Z"/><path class="cls-4" d="M132.47,56.32a1.23,1.23,0,0,1-1.21-1.2V48.7a1.21,1.21,0,0,1,1.21-1.21,1.2,1.2,0,0,1,.85.36,1.17,1.17,0,0,1,.35.85v6.42a1.19,1.19,0,0,1-.35.85,1.23,1.23,0,0,1-.85.35Z"/><path class="cls-4" d="M39.09,118.92H32.66a1.21,1.21,0,0,1-.86-2.06,1.25,1.25,0,0,1,.86-.35h6.43a1.2,1.2,0,0,1,1.21,1.2,1.21,1.21,0,0,1-1.21,1.21Z"/><path class="cls-4" d="M35.88,122.13a1.27,1.27,0,0,1-.85-.36,1.2,1.2,0,0,1-.36-.85V114.5a1.19,1.19,0,0,1,.35-.85,1.22,1.22,0,0,1,1.71,0,1.19,1.19,0,0,1,.35.85v6.42a1.17,1.17,0,0,1-.35.85A1.2,1.2,0,0,1,35.88,122.13Z"/></svg>