<svg id="Layer_1" data-name="Layer 1" xmlns="http://www.w3.org/2000/svg" viewBox="0 0 170.9 174"><defs><style>.cls-1{fill:#fff;}.cls-2{fill:#e8ebec;}.cls-3{fill:#bdc3d8;}.cls-4{fill:#0f615d;}</style></defs><path class="cls-1" d="M0,20A20,20,0,0,1,20,0H150.9a20,20,0,0,1,20,20V154a20,20,0,0,1-20,20H20A20,20,0,0,1,0,154Z"/><path class="cls-2" d="M99.28,147.09A20.09,20.09,0,1,0,79.15,127,20.11,20.11,0,0,0,99.28,147.09Z"/><path class="cls-2" d="M124.87,84.74a20.09,20.09,0,1,0-20.13-20.08A20.1,20.1,0,0,0,124.87,84.74Z"/><path class="cls-2" d="M59.55,98.55A33.48,33.48,0,1,0,26,65.08,33.51,33.51,0,0,0,59.55,98.55Z"/><path class="cls-1" d="M45.58,125.33h80.53a10.07,10.07,0,0,1-10.07,10H55.65a10.07,10.07,0,0,1-10.07-10Z"/><path class="cls-3" d="M69.08,128.68h57.05l-6.71,6.7h-57a6.71,6.71,0,0,1,6.71-6.7Z"/><path class="cls-4" d="M116,136.63H55.65a11.32,11.32,0,0,1-11.33-11.3,1.26,1.26,0,0,1,.37-.88,1.3,1.3,0,0,1,.89-.37h80.53a1.29,1.29,0,0,1,.89.36,1.26,1.26,0,0,1,.37.89A11.32,11.32,0,0,1,116,136.63Zm-69.1-10a8.81,8.81,0,0,0,8.71,7.53H116a8.83,8.83,0,0,0,8.73-7.53Z"/><path class="cls-1" d="M54,51.69h63.76V108.6A16.76,16.76,0,0,1,101,125.33H70.76A16.76,16.76,0,0,1,54,108.6Z"/><path class="cls-3" d="M77.47,68.43h40.27V108.6A16.76,16.76,0,0,1,101,125.33H87.54A16.76,16.76,0,0,1,70.76,108.6V75.12a6.71,6.71,0,0,1,6.71-6.69Z"/><path class="cls-4" d="M100.94,126.59H70.74a18,18,0,0,1-18-18V51.69a1.26,1.26,0,0,1,.37-.88,1.29,1.29,0,0,1,.89-.38h63.75a1.26,1.26,0,0,1,.89.37,1.24,1.24,0,0,1,.37.89V108.6a18,18,0,0,1-18,18ZM55.23,52.94V108.6a15.52,15.52,0,0,0,15.51,15.48h30.2a15.49,15.49,0,0,0,15.52-15.48V52.94Z"/><path class="cls-4" d="M124.43,108.18h-6.71a1.28,1.28,0,0,1-1.26-1.26V63.4a1.29,1.29,0,0,1,.38-.88,1.26,1.26,0,0,1,.88-.37h6.71a18,18,0,0,1,18,18v10a18,18,0,0,1-18,18ZM119,105.67h5.45A15.49,15.49,0,0,0,140,90.18v-10a15.5,15.5,0,0,0-15.52-15.48H119Z"/><path class="cls-4" d="M129.46,126.59H42.22A1.25,1.25,0,0,1,41,125.33a1.23,1.23,0,0,1,1.25-1.25h87.24a1.25,1.25,0,0,1,1.26,1.25,1.26,1.26,0,0,1-1.26,1.26Z"/><path class="cls-4" d="M119.4,52.94H52.29a1.29,1.29,0,0,1-.89-.36,1.26,1.26,0,0,1-.37-.89,1.24,1.24,0,0,1,.37-.89,1.26,1.26,0,0,1,.89-.37H119.4a1.26,1.26,0,0,1,.89.37,1.28,1.28,0,0,1,.37.89,1.25,1.25,0,0,1-1.26,1.25Z"/><path class="cls-4" d="M85.86,46.25A1.26,1.26,0,0,1,84.6,45,14.68,14.68,0,0,1,99.28,30.35a1.26,1.26,0,1,1,0,2.51A12.17,12.17,0,0,0,87.12,45a1.26,1.26,0,0,1-1.26,1.26Z"/><path class="cls-4" d="M102.62,46.25A1.28,1.28,0,0,1,101.36,45a11.34,11.34,0,0,1,11.33-11.3,1.26,1.26,0,0,1,0,2.52A8.79,8.79,0,0,0,103.88,45a1.26,1.26,0,0,1-1.26,1.26Z"/><path class="cls-4" d="M69.07,46.25a1.33,1.33,0,0,1-.89-.37,1.3,1.3,0,0,1-.37-.89,18,18,0,0,1,18-18,1.26,1.26,0,1,1,0,2.51A15.53,15.53,0,0,0,70.32,45a1.25,1.25,0,0,1-1.25,1.26Z"/><path class="cls-4" d="M36.17,113.2H33.83a1.26,1.26,0,0,1,0-2.51h2.34a1.26,1.26,0,1,1,0,2.51Z"/><path class="cls-4" d="M43.9,113.2H41.59a1.26,1.26,0,1,1,0-2.51H43.9a1.26,1.26,0,0,1,.89.37,1.24,1.24,0,0,1,0,1.77A1.26,1.26,0,0,1,43.9,113.2Z"/><path class="cls-4" d="M38.87,118.22A1.26,1.26,0,0,1,37.61,117v-2.31a1.26,1.26,0,0,1,1.26-1.25,1.26,1.26,0,0,1,1.26,1.25V117a1.37,1.37,0,0,1-.09.49,1.42,1.42,0,0,1-.28.41,1.17,1.17,0,0,1-.41.27,1.32,1.32,0,0,1-.48.09Z"/><path class="cls-4" d="M38.87,110.5a1.26,1.26,0,0,1-1.26-1.25v-2.33a1.25,1.25,0,0,1,1.26-1.25,1.25,1.25,0,0,1,1.26,1.25v2.41a1.33,1.33,0,0,1-.4.84A1.28,1.28,0,0,1,38.87,110.5Z"/><path class="cls-4" d="M41.2,78.05H38.87a1.26,1.26,0,1,1,0-2.51H41.2a1.26,1.26,0,0,1,.89.37,1.24,1.24,0,0,1,0,1.77A1.26,1.26,0,0,1,41.2,78.05Z"/><path class="cls-4" d="M48.93,78.05H46.62a1.26,1.26,0,0,1-.89-.37,1.24,1.24,0,0,1,0-1.77,1.26,1.26,0,0,1,.89-.37h2.31a1.26,1.26,0,1,1,0,2.51Z"/><path class="cls-4" d="M43.9,83.07A1.26,1.26,0,0,1,43,82.7a1.29,1.29,0,0,1-.38-.88V79.51a1.26,1.26,0,0,1,2.15-.89,1.22,1.22,0,0,1,.37.89v2.31a1.22,1.22,0,0,1-.37.88A1.26,1.26,0,0,1,43.9,83.07Z"/><path class="cls-4" d="M43.9,75.35A1.22,1.22,0,0,1,43,75a1.27,1.27,0,0,1-.38-.88V71.77a1.26,1.26,0,0,1,2.15-.88,1.22,1.22,0,0,1,.37.88v2.41a1.25,1.25,0,0,1-1.26,1.17Z"/><path class="cls-4" d="M36.17,58H33.83a1.26,1.26,0,0,1,0-2.51h2.34a1.26,1.26,0,1,1,0,2.51Z"/><path class="cls-4" d="M43.9,58H41.59a1.26,1.26,0,1,1,0-2.51H43.9a1.3,1.3,0,0,1,.89.37,1.26,1.26,0,0,1,0,1.78A1.29,1.29,0,0,1,43.9,58Z"/><path class="cls-4" d="M38.87,63a1.31,1.31,0,0,1-.89-.38,1.26,1.26,0,0,1-.37-.88V59.4a1.26,1.26,0,0,1,1.26-1.25,1.26,1.26,0,0,1,1.26,1.25v2.33A1.26,1.26,0,0,1,38.87,63Z"/><path class="cls-4" d="M38.87,55.25A1.25,1.25,0,0,1,37.61,54V51.69A1.24,1.24,0,0,1,38,50.8a1.22,1.22,0,0,1,.89-.37,1.26,1.26,0,0,1,.89.37,1.28,1.28,0,0,1,.37.89V54a1.32,1.32,0,0,1-.09.48,1.42,1.42,0,0,1-.28.41,1,1,0,0,1-.41.27,1.14,1.14,0,0,1-.48.09Z"/><path class="cls-4" d="M109.33,99.64a1.26,1.26,0,0,1-1.26-1.25V77a1.26,1.26,0,0,1,1.26-1.26A1.26,1.26,0,0,1,110.59,77V98.39a1.32,1.32,0,0,1-.09.48,1.39,1.39,0,0,1-.27.41,1.22,1.22,0,0,1-.41.27,1.37,1.37,0,0,1-.49.09Z"/><path class="cls-4" d="M109.33,110.05a1.26,1.26,0,0,1-.88-.37,1.29,1.29,0,0,1-.38-.88v-3.72a1.26,1.26,0,0,1,1.26-1.26,1.26,1.26,0,0,1,1.26,1.26v3.72a1.26,1.26,0,0,1-1.26,1.25Z"/></svg>